<?xml version="1.0" standalone="no"?>
<!DOCTYPE svg PUBLIC "-//W3C//DTD SVG 1.1//EN" "http://www.w3.org/Graphics/SVG/1.1/DTD/svg11.dtd" >
<svg xmlns="http://www.w3.org/2000/svg">
<metadata></metadata>
<defs>
<font id="ShaunoftheDeadRegular" horiz-adv-x="1196" >
<font-face units-per-em="2048" ascent="1638" descent="-410" />
<missing-glyph horiz-adv-x="512" />
<glyph horiz-adv-x="0" />
<glyph horiz-adv-x="2048" />
<glyph unicode=" "  horiz-adv-x="512" />
<glyph unicode="&#x09;" horiz-adv-x="512" />
<glyph unicode="&#xa0;" horiz-adv-x="512" />
<glyph unicode="A" horiz-adv-x="1303" d="M577 680q-5 13 -5 36q2 2 4 3.5t5 4.5q2 -3 4.5 -6t5.5 -6q-2 -18 -4 -27q-3 -2 -5.5 -3t-4.5 -2zM244 582q10 1 13 4q-3 3 -13 5v-5v-4zM688 550v2.5v3.5h4h5v6.5v6.5h7.5h8.5q-1 -3 -2 -5.5t-1 -5.5q-10 -3 -22 -8zM497 521q-3 1 -6.5 2.5t-6.5 3.5v3.5v4.5h4h5 q2 -7 10 -11q-2 -1 -3.5 -2t-2.5 -1zM631 509q4 18 25 22q0 -1 2 -7q-13 -13 -27 -15zM536 490q-14 14 -19 15q-2 12 5 37h3h5q6 -10 18 -28h6h7q18 18 8 32t-32 15q0 9 -0.5 18t-0.5 18q10 -1 25 -23q12 0 22.5 6.5t23.5 4.5q-56 -32 -4 -43q-2 -30 -3 -44q-3 -3 -11 -4 t-53 -4zM263 458q14 2 20 2q12 19 -7 41q-14 -1 -18 -5q0 -10 1.5 -17t3.5 -21zM1059 379q8 1 17 8v4v5q-15 -1 -17 -17zM510 290q-16 16 -14 36q12 10 21 -6.5t4 -27.5q-3 -1 -5.5 -1.5t-5.5 -0.5zM536 188q-8 5 -16 32q5 0 17 -2q7 -12 24 -20v-5.5v-4.5h-12.5h-12.5z M434 135h4.5h5.5v13.5v14.5h-5.5h-4.5v-14.5v-13.5zM437 -10q-44 3 -57 10q-84 0 -168.5 -0.5t-168.5 -1.5q-9 14 1 52t14 53q16 123 43.5 246.5t39.5 247.5q13 51 19 102q21 54 22.5 114.5t21.5 116.5q6 50 16 99.5t16 100.5q12 30 12 67t20 64h380.5t381.5 1q1 -1 7 -4 q16 -75 23 -138q9 -23 9.5 -46.5t9.5 -45.5q20 -141 48.5 -279.5t46.5 -278.5q18 -56 20 -118t25 -116q6 -52 16 -103.5t16 -102.5q6 -16 6 -22q-5 -5 -7 -8q-85 0 -169 -2.5t-168 -1.5q5 7 4 19q-9 0 -18 0.5t-18 1.5q0 -3 0.5 -5.5t1.5 -4.5q5 -2 9.5 -3.5t10.5 -2.5v-3 v-5q-49 1 -64.5 3t-27.5 2q-25 -12 -51 1q-23 106 -23 202q6 21 1.5 28.5t-4.5 25.5q18 18 42 28.5t48 22.5q11 22 26.5 44t19.5 48q33 37 58.5 93.5t42.5 102.5q0 28 -23.5 37.5t-28.5 32.5q-22 5 -25 8q3 0 6 1l6 2q-2 1 -10 4q0 22 1 32q-26 3 -36 -18t-10 -42 q9 -18 9 -27.5v-29.5q8 -12 18 -47q-27 -2 -38 -29q-11 -1 -42 15q-3 33 -25 29q-2 -15 5 -18.5t11 -15.5h4.5h5.5q-1 -3 -3 -7h-7.5h-6.5q-2 5 -18 13v2.5v3.5h-15.5h-13.5q0 6 0.5 11.5t1.5 11.5q39 15 41.5 37t-10.5 58q0 48 29 76q-1 6 -2 13.5t-1 14.5q14 24 -3 57v13 v14q4 0 14 2q5 -21 11.5 -43.5t27.5 -31.5q6 4 7 12q-8 7 -11 18q21 0 32 -1q5 8 9 27q-18 6 -2 28v12.5v12.5q-67 60 -105 5t-72 -102q-3 -33 -7.5 -38t-35.5 -8q-20 -20 -44 -4h-15h-14q-22 17 -38 21q-4 14 -16 22v4.5v5.5q32 9 54 -9.5t55 -17.5v6v6q-7 1 -13.5 2 t-12.5 3v4.5v5.5q14 2 23 2v6.5v6.5q-4 5 -12 13q3 13 16 38q0 9 1 18.5t2 19.5q-37 36 22 40t59 43q-7 4 -23 6q0 3 0.5 7t1.5 9q-51 42 -77.5 19t-58.5 -67q-8 -23 -7 -40.5t0 -39.5q-6 -3 -23.5 -6.5t-69.5 -20.5q-12 -28 -17 -42q5 -29 8 -56t11 -55q7 -9 18 -13.5 t15 -14.5q1 -1 3 -2t4 -1q3 -14 8 -22t7 -23q-21 3 -29 23.5t-26 26.5q-15 23 -46 30.5t-43 -23.5q0 -18 3 -32.5t3 -30.5q-14 -14 -2.5 -43t15.5 -46q16 -35 21 -70.5t17 -71.5q18 -42 29.5 -61.5t21.5 -40.5q3 -59 22 -95q-8 -45 0.5 -89t8.5 -89q-6 -5 -49 -5q-4 6 -5 9 q-3 1 -7 1q-10 -10 -23 -16z" />
<glyph unicode="B" horiz-adv-x="1203" d="M970 1048h4h5q5 31 5 52q-19 0 -20 -20t6 -32zM66 978q21 8 16.5 25.5t-22.5 23.5q-42 -25 6 -49zM510 803q31 2 58 22q1 42 -13 64t35 53q12 40 -2 55q-2 16 -4 26q-12 7 -24 7q-62 -28 -90.5 -81t4.5 -118q24 -18 36 -28zM107 496q10 8 14 11v6.5v6.5h-4h-4 q-8 -11 -6 -24zM919 436q6 1 30 28q-4 29 -30.5 29t-26.5 -32q6 -6 13 -12.5t14 -12.5zM88 433h5h5v12.5v12.5q-6 1 -14 -2q-2 -12 4 -23zM272 306q4 0 14 2q3 7 0 24q-2 1 -10 4q-6 -5 -11 -9.5t-10 -8.5v-3.5v-3.5q27 -9 17 -5zM995 252q16 2 27 11v8.5v10.5 q-17 8 -28 -3.5t1 -26.5zM564 249q4 1 20 8q3 25 8.5 39.5t-2.5 42.5q-45 32 -33.5 52t11.5 68q-6 7 -32 20q-58 0 -70 -47t-2 -92q18 -38 41 -55.5t59 -35.5zM282 230q4 0 9 1l10 2q2 12 -5 26q-17 1 -22 -3q0 -18 8 -26zM792 147q6 0 12.5 0.5t13.5 1.5q14 21 1 34 q-41 0 -41 -24q3 -3 6.5 -6t7.5 -6zM114 128q3 3 7 5v6v6q-15 1 -15 -12q1 -1 8 -5zM171 106q4 0 8 0.5t9 1.5q3 5 9 13q0 54 -22 100h-6h-6q-12 -20 -19.5 -29t-12.5 -19q2 -50 40 -67zM833 24q8 1 20 5q9 15 4 27h-9h-7q-10 -12 -8 -32zM31 -1q-6 2 -8 8v618.5v618.5 q-1 -3 7 17h135.5h136.5q3 -4 9 -26q5 0 15 -2q7 7 15 14t17 15q179 0 277.5 -0.5t152.5 -0.5t81.5 -0.5t65.5 -1.5q45 -15 76.5 -29t67.5 -49q7 -14 15 -27.5t16 -26.5q5 -18 9.5 -36.5t10.5 -36.5v-86v-86q-6 -27 -8.5 -37t-11.5 -45q-60 -96 -156 -122q-1 -4 -1 -11 q56 -24 107 -57q10 -15 15.5 -22t28.5 -31q13 -26 22 -54q9 -87 12 -182.5t-24 -176.5q-9 -16 -17 -31t-15 -30q-19 -17 -37.5 -33t-39.5 -28q-83 -23 -173.5 -22.5t-176.5 0.5q-20 12 -35 1q-147 -1 -294.5 -1t-294.5 -1z" />
<glyph unicode="C" horiz-adv-x="1204" d="M138 1111q15 4 15 26q-2 0 -3 0.5t-2 0.5q-5 -3 -11 -7q1 -6 1 -20zM855 1085q14 1 51 16q6 5 14.5 20.5t18.5 30.5q-10 40 -42 20t-52 -34q-18 -3 -38 -15t7 -30q25 -3 41 -8zM636 984q6 0 13 0.5t14 1.5q0 3 2 11q-7 1 -32 0q1 -5 3 -13zM1105 845q2 0 11 5v14.5v16.5 h-6h-6q0 -9 0.5 -18t0.5 -18zM566 651q-2 5 -15 10q-2 9 0 16q7 -4 13 -5q4 -11 2 -21zM608 591q-17 13 -19 25q4 2 6 2q9 -6 18 -18q-4 -6 -5 -9zM402 537q-5 6 -7 13q8 4 48 0q-1 -3 -1.5 -5.5t-0.5 -5.5q-10 -1 -20 -1.5t-19 -0.5zM899 483q2 19 16 22q5 16 19 13 q-7 -28 -35 -35zM598 474q-1 1 -23 11q-2 6 -2 8q3 2 32 19v6.5v6.5q-10 7 -32 7q-16 -19 -16 -30q-9 -1 -17.5 -2t-17.5 -1q0 3 0.5 5.5t1.5 5.5q14 8 22 12q0 12 -6.5 23.5t-9.5 23.5q2 1 6 1q20 -26 35 -23q3 11 7 20q39 -3 46 -6q2 -46 2 -68q-5 -2 -14 -10t-14 -9z M795 461q-1 3 -1.5 5.5t-0.5 5.5q12 12 33 14q1 -4 1 -14q-4 -4 -32 -11zM582 448v3.5v3.5q8 3 11 9q0 -4 -0.5 -8t-0.5 -8h-5h-5zM1112 420h4h5q-2 8 -2 10q-3 1 -7 3v-7v-6zM969 394l16 4v6v6q-7 -1 -13.5 -2t-12.5 -1v-5v-4q6 -2 10 -4zM126 267q4 2 14 6v8.5v8.5 q-16 10 -28 4q-2 -17 14 -27zM405 109q21 2 27.5 8t20.5 20q0 24 1.5 41.5t-22.5 35.5q0 9 4 14q27 0 45.5 -7t43.5 13q38 0 56 21q-4 13 -4 25q36 17 48 35q-3 5 -7 11h-98h-97q-4 -2 -7 -3l-4 -14t-3 -13q-24 -24 -20.5 -33t21.5 -38q-9 -12 -19 -20q-7 -20 -7 -71 q14 -16 21 -25zM1042 93q3 2 11 6q0 7 -4 12q-11 0 -15 -4q0 -5 8 -14zM306 -7q-3 1 -9 5q-77 2 -135.5 22.5t-104.5 85.5q-5 9 -10 18.5t-9 19.5q-9 45 -11.5 54.5t-7.5 21.5v415v416q11 48 28.5 87t57.5 72q38 22 57 32q17 4 33.5 8t34.5 9q29 1 53.5 1.5t82 0.5t167 0.5 t309.5 0.5q66 -3 125.5 -17.5t107.5 -63.5q0 -37 5.5 -39t32.5 -21q30 -73 26 -159t-7 -163q-12 -16 -7.5 -31.5t4.5 -34.5q-13 -12 -34 -16t-37 -7q-40 -2 -84.5 -6.5t-83.5 3.5q-12 -8 -27 -9q-18 18 -28 40.5t-20 46.5q-21 15 -45.5 29.5t-49.5 19.5q-33 33 -77 48.5 t-83 39.5q-34 11 -42.5 10.5t-35.5 -21.5q-11 -22 -27 -30q-2 -8 -3 -11q-3 0 -6 -0.5t-5 -0.5q-2 -4 -3 -7q-48 -3 -23.5 -25t50.5 -22q30 16 56 9q12 5 25 8t19 7q0 1 0.5 2.5t0.5 3.5h3.5h3.5q1 -31 29 -40q0 -14 -6 -22t-7 -21q-20 -6 -31 -9q-1 -3 -2 -4.5t-1 -3.5 q4 -6 6 -10q14 0 25 21q2 0 10 -2q0 -12 -8.5 -18.5t-13.5 -16.5l8 -20q-7 0 -14.5 1t-13.5 2q-13 51 -43 40.5t-66 -10.5q-39 26 -88 26q-25 13 -42.5 5t-42.5 -10q0 3 0.5 6.5t0.5 7.5q13 8 43 15.5t30 27.5q-6 4 -7 5q-17 -13 -24 -13q0 9 2.5 15t2.5 15q-12 7 -29 12 q-8 -21 -30.5 -6t-41.5 -13q-15 -51 1 -78q12 -12 42 -31t72 -49q33 -4 38 -8t9 -36q18 -24 8 -37t0 -39q-24 -8 -24 -35q-34 -12 -35 -11q-9 20 7.5 47.5t24.5 48.5q-2 2 -3 4t-2 5q-8 -2 -11 -2q-2 -7 -3 -13.5t-2 -12.5h-6h-6q-2 16 -2 23q-2 0 -6 2q-21 -16 -47 -1 q-39 6 -50 3q-1 -2 -3 -8q-7 -1 -19 -3q-5 16 -18 38q-5 15 -23 49t-23 -14q-5 0 -9.5 0.5t-9.5 1.5q-19 -33 -22 -46t13 -46q22 -18 31 -24t39 -24q9 -3 18 -3h52q9 -44 21 -76t63 -32q24 4 49 7.5t50 8.5q12 29 52 46q2 8 2 10q16 2 22 0q-4 -21 -27.5 -30.5t-26.5 -26.5 q-2 -1 -5 -1q-12 -29 -22.5 -42.5t12.5 -40.5q35 0 47.5 1t26.5 1q17 -12 55.5 2.5t56.5 23.5q57 9 70.5 12t40.5 11q33 14 63 29.5t42 20.5q40 5 98 26q45 0 89 3t89 6q6 7 13 8q0 -71 0.5 -140.5t0.5 -139.5q-18 -86 -57 -135t-129 -76q-155 -9 -310 -6.5t-310 2.5 q-15 -4 -20 -5z" />
<glyph unicode="D" horiz-adv-x="1204" d="M838 845q2 0 8 2q0 19 -14.5 36t-26.5 31q-13 25 -29 43q-49 1 -13 -32.5t43 -54.5q6 -1 32 -25zM1098 810q20 7 25 47q-8 4 -12 5q-38 -22 -13 -52zM696 772q-2 10 -2 14h6h6v-6v-6q-16 -4 -10 -2zM686 753q9 0 29 2q35 26 23 52q-19 11 -48 16t-44 -16q0 -35 6 -35.5 t34 -18.5zM372 746q0 3 -0.5 5.5t-0.5 5.5q6 2 11 2q-2 -6 -2 -10q-3 -1 -4.5 -2t-3.5 -1zM372 731q26 1 30 5q0 31 -3.5 40.5t-39.5 9.5q-27 -14 -14.5 -30t27.5 -25zM920 693q17 1 21 5q1 15 2.5 42.5t-2.5 42.5q-12 0 -16 -18q18 -26 -5 -28q1 -25 -5 -35q4 -6 5 -9z M1098 610q14 7 17 8q1 26 -17 32q-29 -21 0 -40zM401 404q-20 9 -25.5 39.5t3.5 49.5q-2 1 19 -8q47 0 95.5 -1.5t94.5 -13.5q0 -3 1 -5q15 -9 33.5 -19t32.5 -22v-6v-6q-20 0 -52 13q-8 -1 -16 -1.5t-15 -0.5v4.5v5.5q23 6 23 16q-17 17 -64 17q-21 -11 -48.5 -7t-42.5 -11 q2 -10 2 -17q9 -3 17 -7v-6v-6q-18 -7 -58 -8zM585 198q36 0 61.5 2.5t55.5 24.5q24 3 44 14.5t42 20.5q7 14 10 33q33 39 54 50q3 18 -1 34t-7 36q-2 1 -5 1v30.5v31.5q4 2 12 4v4.5v5.5q-9 -2 -12.5 -4t-12.5 -2q-8 13 -8 34q34 34 34 82q1 4 2.5 9t3.5 10q21 6 26 42 q19 18 18 50q-47 21 -58 23q-28 -40 -81 -40q-3 4 -1 11q-4 0 -8.5 1t-7.5 2q0 -1 -0.5 -2.5t-0.5 -2.5q-28 11 -45 4q-22 11 -46 -3q-21 -1 -38 -3t-36 -4q-10 -14 -19 -19q-8 2 -25 27q-32 26 -32 74q-6 12 -8 18q-8 0 -24 2q-22 -54 -29 -69t-25 -52v-7.5v-6.5 q24 -33 37 -43t52 13q20 -5 36.5 -16.5t38.5 -11.5q9 6 18 6q0 -1 0.5 -2t0.5 -2q-4 -9 -23 -25q-20 0 -35.5 4.5t-35.5 4.5q-19 -30 -54 -33t-56 -23v-7.5v-6.5q-8 -2 -11 -3q2 19 7 25q-19 18 -9.5 43.5t15.5 46.5q-14 0 -43 -11q0 -3 -0.5 -5t-0.5 -4q-29 -2 -43 -4 q-11 -56 0 -95q1 0 2.5 -0.5t2.5 -0.5q6 -33 16 -48q15 0 26 -3q5 -21 6.5 -42.5t11.5 -39.5q16 -2 23.5 3.5t24.5 -6.5q31 -3 73.5 -3.5t72.5 -12.5q0 -3 -0.5 -5t-0.5 -4q-16 -11 -30 -4q-62 -3 -90 -10q-4 -14 -7.5 -27t-6.5 -25q26 -14 36 -36q23 -29 53.5 -31.5 t59.5 -21.5zM813 49q33 3 25 18t-36 15q-7 -15 -1 -19.5t12 -13.5zM509 43q2 0 4 1t5 2v4v5h-6.5h-6.5q2 -8 4 -12zM429 30h6.5h6.5q2 7 0 16q-3 -1 -5.5 -1.5t-4.5 -0.5q-2 -2 -3 -3.5t-2 -2.5q2 -6 2 -8zM45 -1q-2 1 -4 3t-3 4q-1 309 -1 617.5v617.5q7 10 24 21h407.5 h407.5q22 -7 29 -8q2 -59 60 -52q22 25 27 29.5t11 7.5q20 0 39.5 -15t34.5 -26q61 -62 70 -153q1 -5 2.5 -10t3.5 -9v-93v-92q-18 -41 -28.5 -41.5t28.5 -42.5q-1 -96 -3.5 -192t-2.5 -189q14 -29 7 -68.5t-1 -71.5q-7 -23 -8.5 -48.5t-13.5 -43.5q-9 -37 -34 -61t-49 -48 q-15 -7 -29.5 -13.5t-27.5 -12.5q-41 -5 -49 -6t-15 -3h-441.5t-440.5 -1z" />
<glyph unicode="E" horiz-adv-x="880" d="M403 956q21 3 56.5 28t8.5 52q-45 0 -57 31q-15 11 -34 10.5t-37 6.5q-38 0 -47 -52q-15 -27 -18 -37.5t23 -30.5q27 0 55 12.5t50 -20.5zM368 851q4 2 8 3.5t9 4.5q0 20 -9 31h-8h-7q-20 -25 7 -39zM324 372q3 2 11 6v4v4h-6.5h-5.5q0 -9 1 -14zM251 299q17 8 16 35 q-21 -8 -22 -32q1 -1 2.5 -2t3.5 -1zM755 65q8 2 13 3q3 21 8 38t4 38q-29 4 -33 -30.5t8 -48.5zM42 -1q-4 1 -5 5q-1 311 -2.5 621.5t-1.5 621.5q3 11 11 15h389h389q7 -4 11 -11q-1 -67 -1 -134.5v-133.5q-14 -13 -29.5 -8.5t-31.5 -1.5h-113h-112q-2 -1 -14 -8 q-8 -21 -8 -63t12 -62q3 -2 6.5 -3.5t6.5 -2.5q69 -1 139.5 -2.5t140.5 -1.5l4 -4q-1 -68 -1 -135.5v-135.5l-4 -2t-3 -1l-138 -2l-138 -2q-10 -4 -21 -18v-116.5v-116.5q8 -12 15 -15q70 -1 140.5 -2t142.5 -1q2 -3 6 -7v-134.5v-134.5q-1 -1 -2.5 -2l-1.5 -1h-273.5 h-272.5q-7 1 -13.5 2.5t-12.5 3.5q-36 -3 -85 -9t-79 9q-13 0 -25.5 -3t-24.5 -4z" />
<glyph unicode="F" horiz-adv-x="880" d="M683 1152q-2 -1 7 2q0 4 0.5 8.5t1.5 8.5q-4 0 -14 -2q-1 -3 -1.5 -7t-0.5 -7q4 -2 7 -3zM302 956q14 5 20 11v7v8q-19 -2 -27 -9q0 -10 7 -17zM477 686q9 2 13 5q0 8 -3 12h-6h-6q0 -4 0.5 -8.5t1.5 -8.5zM182 531q4 0 10 2q1 8 -6 23q-4 2 -9 -2q0 -14 5 -23zM220 499 q11 3 20 12v4v5q-15 0 -21 -4q0 -11 1 -17zM429 363q10 2 14 5q-1 5 -1 14q-4 -1 -7.5 -1.5t-6.5 -0.5q-3 -4 -4 -8q1 -3 2 -5t3 -4zM36 -1q-3 1 -4.5 3t-3.5 4q0 300 0.5 598.5t0.5 598.5q9 -2 13.5 -5.5t13.5 -6.5q3 6 4 45q15 18 26 26q183 0 367 -0.5t367 -0.5 q2 -2 3 -4q0 -71 -0.5 -141.5t-0.5 -141.5q-66 0 -132 1t-132 1q-2 1 -14 4q-18 -15 -22 -22v-56.5v-56.5q14 -24 46 -14q63 0 126 -0.5t126 -0.5q8 -10 7 -140t-7 -144q-73 -2 -145.5 -3t-144.5 -1q-4 -5 -8 -8l-2 -266t-1 -265q-1 -1 -2.5 -2l-1.5 -1h-240t-239 -1z" />
<glyph unicode="G" d="M607 702q-1 5 -3 13q23 18 48.5 40t55.5 0q43 0 43 -19q-60 -10 -109 -32q-9 -1 -18 -1.5t-17 -0.5zM560 696q-9 6 -8 5v7v8q10 5 7 4q7 -3 14.5 -5.5t15.5 -4.5q2 -8 2 -11q-11 -1 -31 -3zM109 661q3 0 5.5 0.5t5.5 1.5q0 3 1 6l2 6h-8h-7q0 -4 0.5 -7.5t0.5 -6.5z M759 642q22 5 39 11v6v6q-31 1 -39 -23zM692 470q41 11 47 29q-18 27 -40.5 14t-6.5 -43zM239 -1q-76 24 -119.5 53.5t-75.5 103.5q-3 15 -6.5 29t-6.5 28l-2 408t-1 408q5 12 10.5 39.5t14.5 58.5q18 30 26 45q50 48 99 65.5t118 24.5q193 0 300 -0.5t165 -0.5t87.5 -0.5 t69.5 -1.5q42 -10 53 -13t35 -12q0 -9 1.5 -17t2.5 -16q11 0 18 7q49 0 68.5 -41.5t25.5 -83.5q16 -10 16 -32.5t6 -40.5l-2 -82t-1 -81q-38 -23 -88 -25.5t-91 -16.5q-79 0 -75 2q0 -19 1.5 -45t-23.5 -26q-3 4 -3 17q16 52 -13 89q-36 26 -68.5 56t-69.5 53 q-68 20 -113.5 42.5t-89.5 81.5q-3 0 -6 -0.5t-6 -0.5l-12 -14t-12 -13v-23.5v-23.5q19 -33 24 -41t17 -21q41 -31 94.5 -56.5t-28.5 -63.5q-33 -11 -76 -34t-18 -69q25 -25 6 -61q0 -28 17 -42t34 -33v-21.5v-20.5q6 -10 14.5 -16.5t14.5 -18.5q-14 -27 -45.5 -51 t-53.5 -45q-33 -25 -60.5 -43t-34.5 -60q7 -13 24 -11q41 38 85.5 64.5t81.5 71.5q12 24 20 42.5t39 11.5q0 1 0.5 3t0.5 4q-2 0 -4 1t-3 2q-7 23 -9 32.5t13 27.5q74 31 117 85q-1 2 -2 4.5t-1 5.5q-20 8 -52.5 -5t-53.5 -17q0 -2 -0.5 -3t-0.5 -2h-5h-4v4v5q4 1 11 1 q0 3 20 20q1 7 2 15t3 16q3 1 33 1q6 3 18.5 10.5t19.5 -1.5q21 -5 57 7q9 12 16 16q24 -13 30 -57q-14 -36 -27.5 -67t-44.5 -53q0 -6 0.5 -10.5t0.5 -9.5q16 -9 38.5 3t37.5 19q19 15 52 53.5t-2 63.5q-22 3 -29 7q0 18 26 53q3 0 7.5 0.5t9.5 0.5q42 -38 69.5 -18.5 t69.5 3.5v-3.5v-2.5q-52 -11 -52 -48q8 -8 12 -17t13 -16q32 6 62.5 4.5t64.5 -1.5q0 -153 1 -306l2 -306q-4 -4 -7 -6h-120h-120q-9 13 -19 47t-30 36q-41 -39 -68 -55.5t-78 -27.5q-21 0 -32 -1q-1 12 2 22.5t3 24.5q-5 4 -11 4q-24 -29 -31 -47q-14 -6 -36 -5t-37 1 q4 -10 -5 17q-7 -3 -10.5 -7.5t-9.5 -8.5h-148.5t-147.5 -1z" />
<glyph unicode="H" d="M730 654q2 1 4.5 2.5t5.5 3.5q2 6 3.5 12.5t4.5 13.5q-3 3 -4.5 5.5t-3.5 5.5q-15 0 -18 -3q0 -31 8 -40zM603 468q-5 1 -23 8q-24 44 3 97q10 0 15 -2t14 -2q0 43 16 71q4 0 16 2q6 -22 7.5 -52.5t20.5 -45.5q19 13 27 21t31 -14q1 -4 1 -11q-11 -8 -39 -20 q-23 -17 -42.5 -33.5t-46.5 -18.5zM511 410q4 12 9.5 21t8.5 22q-26 31 -2 51q37 -26 8 -59q-8 -15 -9 -21t-4 -12q-3 0 -11 -2zM99 188q6 2 11 2q0 5 2 11q-18 5 -13 -13zM14 -1q-3 2 -8 7q0 72 1 143.5t1 143.5q3 15 0 22q-1 235 -2 471t3 472q6 3 7 4h239.5h239.5 q4 -3 8 -4q0 -42 -1.5 -82t-1.5 -81q12 -32 6 -66t-6 -67q7 -22 0 -46q2 -9 3 -18t4 -56q9 -10 61 -11.5t58 14.5v18.5v19.5q6 13 5 22.5t1 24.5q10 7 17 15q-2 2 -21 4q-2 4 -2 28.5v168.5q9 27 0 58t11 57q118 0 237.5 0.5t238.5 0.5q4 -3 8 -4q-1 -243 -2 -484.5 t-1 -483.5q-12 -21 0 -44q0 -61 1 -122t2 -121q-2 -1 -4 -3h-245.5h-244.5q-6 7 -7.5 34.5t3.5 36.5q0 168 -0.5 202.5t-2.5 70.5q12 17 36 23.5t33 30.5q23 14 38 50q36 28 50.5 33.5t12.5 50.5q-18 9 -27 14q-1 1 -1.5 3t-0.5 4q2 1 6 1q0 4 1 5q18 10 28.5 26t-14.5 33 q-7 -6 -50 -16q-37 26 -55 55q3 30 -14 44q-38 0 -58.5 0.5t-41.5 -29.5h-13.5h-12.5q-43 -30 -66 -53q-15 -39 -29.5 -98t1.5 -101q8 -104 10.5 -207.5t8.5 -206.5q-3 -2 -7 -6h-221t-220 -1z" />
<glyph unicode="I" horiz-adv-x="902" d="M294 917h6h7q0 24 3.5 41t3.5 30q-8 8 -12 11q-19 -15 -16.5 -39t8.5 -43zM119 775q2 0 3.5 0.5l4.5 1.5q0 3 0.5 6.5t1.5 7.5q-3 0 -6.5 -0.5t-6.5 -0.5q-2 -5 3 -15zM443 750q4 0 14 2q0 1 1 3l2 4q19 5 23 12q-3 4 -7 12h-6h-6q-6 -16 -19 -23q-1 -3 -1.5 -5.5 t-0.5 -4.5zM193 708q0 8 1 11q-14 10 -31 17q-10 -5 -7 -4v-5v-4q24 -10 37 -15zM364 693q29 8 42 24q0 3 -0.5 6.5t-0.5 7.5q-16 -3 -43 -24q0 -4 0.5 -7.5t1.5 -6.5zM208 388q6 2 8 2q24 53 -36 62q5 -52 28 -64zM234 249h19.5h21.5v6v6q-26 3 -32 26q-11 6 -22 11 q-6 -2 -8 -4q-2 -23 21 -45zM218 -20q-5 6 -8 16q-3 62 -6.5 124.5t-3.5 125.5q-5 6 -9.5 17.5t-25.5 73.5q0 7 3.5 17.5t3.5 17.5q-84 138 -108 301q-40 79 -44 151q3 3 7 6l8 6v6v6q-16 15 -15.5 52t19.5 50q17 1 52 1q18 -14 36.5 -28t37.5 -27q12 -20 23 -37t31 -29 q3 -10 7.5 -20t8.5 -19q0 -16 4 -24q30 -4 43 -16q1 -47 -34 -47q-4 9 -13.5 29.5t-24.5 16.5q0 -12 1.5 -20t1.5 -16l-6 -6q0 -4 0.5 -7.5t0.5 -6.5q12 -8 25 -31q18 9 38.5 9h41.5q8 8 17 14v25v26q-10 6 -19.5 9t-15.5 12q6 14 21 24.5t25 25.5q-2 0 -4 1.5t-3 2.5 q-11 -7 -34 -13q-21 -16 -36 -16q-7 9 -12 35q-25 7 -30 36q-5 6 -9.5 12.5t-9.5 13.5q0 24 -13 29.5t-22 24.5q-7 0 -13.5 1t-12.5 2q-6 25 -8 41t-7 53q-9 22 -6.5 47t3.5 49q24 39 62.5 49t81.5 13q3 2 5.5 3.5t5.5 4.5v2.5v3.5q-35 42 5 106.5t73 91.5q42 10 61 10 q38 -24 58 -36v-6v-6q-4 0 -10 -2v-7.5v-6.5q31 0 37 -1q1 -5 1 -13q-27 -34 -65.5 -41t-71.5 -31q-1 -3 -1.5 -5.5t-0.5 -4.5q5 -5 16 -9q6 -26 2 -47.5t-9 -46.5q-11 -7 -19 -16q3 -12 26 -29v-6v-6q-13 -5 -37 -1q-1 -2 -2.5 -3.5t-1.5 -2.5q-1 2 11 -16h16h17 q3 -4 3 -15q-27 -16 -48.5 -2.5t-45.5 21.5q-27 19 -34.5 19.5t-36.5 -13.5v-4v-4q16 -2 24 -4q1 -16 -22 -48q22 0 29 17q4 0 9 0.5t11 0.5q6 -6 13 -12l14 -12q15 -2 45 -4q12 -5 28 -9.5t22 14.5q18 0 53.5 5.5t12.5 40.5q0 24 26 55t43 51q5 10 11.5 20t23.5 45 q35 27 102 17t45 -73q-12 -2 -18 -4q0 -20 16.5 -38.5t-17.5 -34.5q-8 0 -27 13q-6 -4 -10 -6q0 -12 6.5 -18.5t6.5 -20.5h-8h-7q-21 25 -29.5 51.5t-24.5 53.5q-2 0 -10 -2q-13 -27 4.5 -48t17.5 -48q-4 -6 -8.5 -12.5t-7.5 -12.5q0 -30 -10.5 -54.5t-14.5 -54.5 q-5 -3 -15 -11q0 -3 -0.5 -6t-0.5 -6q13 -39 17 -84.5t-50 -54.5q-11 -10 -11 -39q2 -3 4.5 -4.5t5.5 -3.5l6 2q0 4 1 8t2 9q18 0 30.5 -14.5t27.5 -23.5q6 4 8 5q0 3 -0.5 5.5t-0.5 5.5q-35 11 -33 44q3 3 18 3q13 -19 19 -45q30 -7 47 -27q2 0 4.5 0.5t5.5 1.5 q5 12 9.5 24t10.5 24q9 0 22.5 -3.5t21.5 -0.5q2 -4 -2 8q-18 11 -24 35.5t-6 45.5q11 16 -12 56v14v15q12 55 63 55q5 -8 -3 -24q0 -14 2 -42q8 0 12 2.5t14 2.5q3 -6 7 -12l8 -12q47 -21 54.5 -46t-5.5 -70q-32 -53 -55.5 -109.5t-54.5 -108.5l-20 -20q-4 -32 -23.5 -52 t-24.5 -50q-17 -17 -26 -29q-18 -6 -35 -13t-35 -13q-15 -11 -27.5 -22t-21.5 -17v-5.5v-4.5l6 -6l6 -6q0 -32 -1.5 -50.5t-1.5 -66.5q2 -8 4.5 -44t5.5 -42q2 -34 4 -48t5 -38q13 -34 13 -48q-83 0 -165 -0.5t-163 -1.5z" />
<glyph unicode="J" horiz-adv-x="1182" d="M1108 629q2 0 4 1t5 2q1 14 1.5 41t-18.5 27q-11 -14 -10 -37.5t18 -33.5zM759 436q6 1 30 28q-4 29 -30.5 28.5t-26.5 -31.5q6 -6 13 -12.5t14 -12.5zM835 252q16 2 27 11v8.5v10.5q-17 8 -28 -3.5t1 -26.5zM122 230q12 2 19 3q2 12 -5 26q-17 1 -22 -3q0 -18 8 -26z M632 147q6 0 12.5 0.5t13.5 1.5q14 21 1 34q-41 0 -41 -24q3 -3 6.5 -6t7.5 -6zM673 24q8 1 20 5q7 18 4 27h-9h-7q-10 -13 -8 -32zM258 -1q-42 12 -83.5 27t-70.5 51q-15 29 -27.5 56t-19.5 58q-2 72 -3 143t-1 143q-9 11 -21.5 20t-19.5 21q-9 60 -13 119.5t23 116.5 q31 0 47 -13q14 -52 6 -95.5t31 -90.5q46 -36 63.5 -22.5t32.5 62.5q12 20 31 34.5t33 35.5q21 11 53 13.5t32 -33.5q-7 -10 -9 -22q5 -5 34 -15q12 -13 20 -19t14 -12q31 -1 46 4.5t41 -24.5q9 -20 17 -34t12 -36q6 -6 13 -11l14 -10q24 -5 24 -38q-16 -12 -32 -7.5 t-16 -22.5q21 -30 15.5 -43.5t-5.5 -41.5q33 -41 63 -28t41 64q0 4 0.5 21.5t1 103.5t2 268.5t3.5 515.5q6 3 7 4h237.5h238.5q8 -4 11 -11v-231.5v-229.5q-48 -39 -22.5 -52t15.5 -57q9 -27 7 -20v-189.5v-188.5q-9 -23 -9 -48.5v-49.5q-33 -124 -151 -172q-38 -7 -57 -13 h-215h-213q-24 12 -40 0h-101t-100 -1z" />
<glyph unicode="K" horiz-adv-x="1223" d="M926 1133q16 8 23 11q11 22 -0.5 30.5t-33.5 -2.5q-5 -29 11 -39zM695 1085q30 3 59.5 25t20.5 59q-25 16 -47.5 -0.5t-42.5 -30.5q-18 -3 -38 -15t7 -30q25 -3 41 -8zM606 949q25 12 14.5 26.5t-31.5 -6.5q1 -4 1 -13q6 -3 16 -7zM831 917q19 2 57 4v6v6q-5 1 -11.5 1 t-42.5 -2q-1 -1 -5 -7q-2 4 2 -8zM891 699q2 0 3.5 0.5l4.5 1.5q4 7 2 14q-8 2 -13 3q-2 -14 3 -19zM368 658q4 0 14 2q4 23 2 36q-6 0 -16 2q-3 -3 -4.5 -6t-3.5 -6q5 -16 8 -28zM134 629q2 0 4 1t5 2q17 44 5 65h-6.5h-5.5q-3 -6 -4.5 -14t-4.5 -51q4 -2 7 -3zM483 468 q-18 9 -31 21t-30 23q-5 8 -42 24v8.5v9.5q20 13 34 13q14 -18 24 -22q19 11 19 73t36 -1q2 -15 4 -45q8 -1 12 0t16 1q15 -30 10.5 -45.5t-7.5 -48.5q-10 -9 -45 -11zM590 410q-9 4 -21 30.5t-12 37.5q6 6 16 26h4h5q10 -24 10 -35q-9 -8 -13 -17q16 -33 16 -40q-1 0 -5 -2 zM153 321q14 3 25 16t22 24h6.5h6.5q17 -20 19 -27q3 0 6.5 0.5t7.5 1.5q-1 37 -1 74.5v75.5h-5.5h-4.5q-12 -31 -51 -77q-15 0 -20 1.5t-15 1.5q-16 -15 -36 -36t-17 -42q9 -1 37 2q5 -4 9.5 -8t10.5 -7zM232 249h6h7q0 9 -0.5 25.5t-16.5 0.5q-1 -11 4 -26zM232 119 q4 0 14 2q0 12 1.5 43.5t-4.5 40.5h-6h-6q-14 -60 1 -86zM32 -1q-2 1 -4 3t-3 4q0 313 1 626l2 626q6 3 7 4q119 0 238 -0.5t239 -0.5q7 -8 8 -134t-5 -138q-3 0 -7 -2q-9 19 -31 9.5t-31 -18.5q-6 -30 -11 -41.5t19 -29.5q29 0 29 13t1 34q6 5 13 10.5t14 11.5q0 -1 1.5 -2 t2.5 -1q0 -23 -1.5 -64.5t10.5 -59.5q6 2 11 2q30 100 62 200.5t65 200.5q12 9 13 10q121 0 242 -0.5t242 -0.5q9 -12 -16.5 -90t-37.5 -95q-28 -102 -63 -201.5t-63 -201.5q0 -43 25 -104q25 -94 53 -187.5t55 -186.5q0 -24 -13 -37t-12 -33q16 -12 47 -12q2 -3 15 -48.5 t16 -58.5l-3.5 -3.5l-2.5 -2.5h-254h-253q-18 18 -7 75t1 88q0 33 1.5 54.5t4.5 88.5q12 75 18 168.5t-47 157.5q-23 16 -39.5 28t-43.5 14q-12 30 -37 28.5t-55 -1.5q-21 -12 -18.5 -25t-6.5 -32q-28 -26 -42 -38q-38 0 -57 12q-30 -18 -11.5 -36.5t33.5 -28.5 q-1 -2 -1.5 -4t-0.5 -3q-13 -8 -26 -13q-18 -42 16 -55t51 -38q21 -60 95 -85q4 -6 7 -11q-5 -66 -10.5 -140.5t10.5 -138.5v-31v-31q-2 -1 -4 -3h-226t-225 -1z" />
<glyph unicode="L" horiz-adv-x="893" d="M130 924q33 3 33 22q-16 12 -32.5 4.5t-0.5 -26.5zM447 905q4 0 14 2v6v6h-6h-5q-4 -4 -5 -6q4 -12 2 -8zM32 842q4 0 10 2v5v6h-6h-6q0 -3 0.5 -6.5t1.5 -6.5zM219 746q16 2 20 6q0 17 -3 21q-5 0 -9.5 0.5t-8.5 0.5q-2 -4 -8 -12q6 -10 9 -16zM165 683q13 2 17 5v7v8 q-14 2 -20 2q-2 -16 3 -22zM298 626q4 1 9 2t10 3q30 42 -12.5 30.5t-6.5 -35.5zM136 439q20 1 27 8v9v10q-21 15 -30.5 3.5t3.5 -30.5zM311 407q39 2 45 5q1 33 -42 41q-18 -4 -27 -7q-11 -21 24 -39zM41 376q2 0 14 8q0 6 0.5 11.5t1.5 11.5q-18 -9 -16 -31zM181 157 q7 1 26 14v7.5v8.5q-22 7 -37 0q-2 -23 11 -30zM624 106q4 0 8.5 0.5t8.5 1.5q17 24 8.5 56t-20.5 57h-6h-6q-13 -20 -20.5 -29t-11.5 -19q0 -49 39 -67zM612 49q33 3 25 18t-36 15q-8 -14 -1.5 -19t12.5 -14zM228 30h6.5h6.5q2 7 0 16q-3 -1 -5.5 -1.5t-4.5 -0.5 q-1 -2 -5 -6q2 -6 2 -8zM19 -1q-10 12 -4 26.5t-1 32.5v350.5v351.5q6 17 0 43v222.5v222.5q2 3 4.5 6.5t5.5 6.5h238.5h239.5q2 -2 3 -4q0 -240 1 -480t3 -480q7 -12 37 -18h131h132q7 -4 10 -11q0 -67 1.5 -135t-7.5 -133h-397.5t-396.5 -1z" />
<glyph unicode="M" horiz-adv-x="1589" d="M580 1158h4.5h5.5q-2 21 -10 38h-5h-4q1 -23 9 -38zM624 1130q6 8 8 12q-13 30 -16 37q-2 0 -4 0.5t-3 0.5q1 -16 5 -42q8 -4 10 -8zM948 267q3 1 6.5 2.5t7.5 3.5q0 20 -3 24q-18 1 -25 -3q-2 -16 14 -27zM1103 -1q-2 1 -4 3t-3 4q-1 73 -1 146.5v147.5q8 17 0 37v87v88 q-3 4 -5 8.5t-4 9.5q-13 87 -67 156q-7 31 -22 55t-29 53q0 75 57.5 22.5t85.5 -71.5q5 -8 51 -57t47 -8q-26 33 -48.5 71t-54.5 67q-17 5 -20 7q-44 70 -94 113q-18 30 -32 49.5t-44 67.5q-27 18 -47.5 43.5t-45.5 45.5q-14 20 -22 33t-30 19q15 18 11 27.5t-8 33.5 q189 6 379.5 5.5t381.5 -0.5q7 -4 10 -11v-124.5v-123.5q-11 -28 -14.5 -33t14.5 -30v-176.5v-175.5q-10 -26 0 -54v-119v-119q-7 -19 0 -41v-126v-126q-2 -2 -4 -3h-219.5t-218.5 -1zM41 -1q-1 1 -2.5 2t-2.5 3v626.5t1 627.5q6 3 7 4q211 1 325.5 1.5t168 0.5t64.5 -0.5 t16 -0.5q6 -36 14.5 -66.5t7.5 -66.5q-20 -8 -23 -32q6 -4 36 -13v-5v-4q-35 -8 -51 -36t-30 -57q-27 -26 -48 -82q-37 -43 -24 -116q-7 -48 -17 -95t-31 -90q0 -40 37 -1.5t42 46.5q0 22 6.5 78t33.5 62q0 -3 2 -7q2 0 6 -2q25 38 68 17q6 -6 12.5 -11.5t13.5 -11.5 q12 -41 27 -80.5t15 -82.5q14 -45 20.5 -89t30.5 -85q4 -15 15.5 -43t34.5 -5q0 14 -2.5 22t-6.5 38q-17 32 -18 86.5t2 90.5q-3 7 -3.5 13.5t-2.5 38.5q21 27 37 29q3 -2 7 -6q17 -50 36.5 -99t36.5 -98q23 -36 32 -70t51 -50q6 4 9 5q-1 6 -1 16q-14 13 -16.5 36.5 t-10.5 41.5q-6 76 -36 121v16v16q-8 20 -26 62t15 55q17 -12 26 -35t23 -40q12 -28 28 -57t39 -50q6 -27 22 -53t16 -53q-47 -93 -72 -200.5t-55 -205.5q-3 -12 -7 -31t-16 -24h-136h-135q-2 1 -3.5 2.5t-2.5 3.5q-39 133 -76 267.5t-77 266.5q-5 1 -13 3v-270v-270 q-9 -6 -28 -3t-28 6q-77 -6 -153 -6q-8 6 -19 10q-5 -4 -17 -10h-97t-97 -1z" />
<glyph unicode="N" horiz-adv-x="1207" d="M113 1152q9 3 7 2q2 12 2 17q-5 0 -13 -2q-2 -8 -2 -14q1 -1 2.5 -2t3.5 -1zM338 1048q4 0 9 1l10 2q0 4 0.5 9t1.5 10q-8 6 -12 8q-10 -3 -13 -4q-2 -20 4 -26zM1051 765q16 2 21 6q0 19 2 36.5t-6 35.5h-8.5h-8.5q-31 -43 0 -78zM560 353q-14 16 -22.5 50.5t-12.5 57.5 q25 -3 41.5 -39.5t16.5 -59.5q-10 -7 -23 -9zM776 347q12 2 16 5v7v8q-13 1 -18 -3q0 -5 0.5 -9t1.5 -8zM535 341q-14 11 -29.5 18.5t-13.5 26.5h7h8q16 -26 34 -33q-1 -3 -1.5 -5.5t-0.5 -4.5zM665 157q26 3 26 33q-15 0 -28 -7.5t2 -25.5zM62 93q3 1 5.5 2.5t5.5 3.5 q0 7 -3 12q-11 0 -16 -4q0 -5 8 -14zM284 -7q-3 1 -9 5q-63 1 -126 1.5t-126 0.5q-2 1 -3.5 2.5t-2.5 3.5q0 312 1 624.5t2 624.5q11 11 50 8.5t57 -2.5q1 -6 2 -12.5t3 -12.5q8 2 11 2q-1 -3 10 23h176.5h177.5q20 -31 33 -70.5t25 -72.5q30 -42 38.5 -99t42.5 -100 q12 2 20 2q21 47 3 98v112v113q6 14 14 18h222h223q7 -4 10 -11v-527v-526q-7 -18 -40 -44v-9v-7q1 -2 2.5 -3t3.5 -2q20 15 31 15q9 -24 6 -71t-3 -74q-24 -21 -108.5 -10t-130.5 2h-230.5h-230.5q-15 14 -2.5 41.5t15.5 44.5q11 12 37 41q1 8 2 16.5t3 17.5q-10 0 -15 1v4 v5q14 4 22 5q21 38 56.5 62.5t66.5 55.5q24 5 38 18q22 0 42.5 -3t35.5 18q-3 15 -6.5 26t-3.5 22q3 9 7 44q24 64 -14.5 56t-77.5 -7q-15 18 6 40t3 40q1 19 3 55q5 12 13.5 25t19.5 36q13 42 16 53t9 36q43 50 48 112q-35 12 -43.5 -7t-30.5 -37q-28 -56 -57.5 -110.5 t-53.5 -111.5q-11 -17 -32.5 -70.5t-51.5 -23.5q-7 2 -17 4q-3 21 -10 38.5t-6 38.5q-12 28 -18 52t5 54v14.5v16.5q-16 37 -3.5 80t-10.5 76q-43 0 -47 -33.5t-5 -65.5q0 -40 1 -80.5t2 -80.5q2 -6 6 -16q-1 -44 1.5 -113t-14.5 -116q0 -75 -11.5 -146.5t8.5 -144.5 q1 -20 5.5 -41t4.5 -39q-10 -7 -48 -6t-52 1z" />
<glyph unicode="O" horiz-adv-x="1189" d="M421 1175q-9 -3 11 2v4v5q-6 2 -8 3q-1 -1 -5 -3q0 -3 0.5 -5.5t1.5 -5.5zM303 852q24 5 33 11q2 14 2 20q-21 2 -38 -9q-2 -14 3 -22zM427 547q22 3 40.5 10t39.5 14q29 28 24.5 86.5t-7.5 96.5q-6 9 -4 37q6 2 9 4l-2 10t-1 11q-12 -3 -9 -2q-11 28 3 84q5 -5 7 -8 q13 6 25 11v7v7q-20 14 -33 2q-4 1 -11 1q-6 32 -26 66.5t-59 -4.5q-3 -23 -9 -67h-5h-3q-3 4 -3.5 15t-2.5 14q-23 0 -29 -18.5t-12 -36.5q6 -24 10 -37q19 0 38 29q2 -2 3 -4q-13 -29 -21 -55q21 -5 17 -31t-10 -38q-3 0 -5 1l-4 2q-1 9 -1 28q-14 5 -19 3q-1 -25 -1 -74 q4 -6 15 -14v-18v-17q-10 -17 -10 -33q6 -21 4.5 -39.5t-2.5 -39.5q26 11 54 -3zM845 528q50 2 74 2q60 33 53.5 128t-21.5 146q-1 21 -2 42.5t-1 43.5q-8 43 -16 72.5t-59 26.5v-5v-4q0 -1 2 -2l4 -2q-5 -14 -8.5 -27.5t-7.5 -26.5q-8 -3 -13 7q8 18 12 26q2 1 6 1v15.5 v16.5q-7 2 -15 11q-34 1 -40 -52h-5h-3v8.5v9.5l1.5 1t2.5 2q-24 29 -71.5 57t-85.5 13q-1 -3 -1.5 -6t-0.5 -6q4 -4 17 -7q-1 -5 -10.5 -17t-18.5 -30q-4 -10 -7 -25q-9 -5 -13 -13q12 -29 -5 -82q-16 -6 -12.5 -39.5t3.5 -48.5q-7 0 -13.5 3.5t-11.5 3.5q-17 -23 -17 -31 h2.5h3.5q2 4 4 7q4 0 8.5 -0.5t10.5 -0.5l-2 -14t-1 -13q-4 -2 -10 -6v-4v-3q17 -18 6.5 -33t-17.5 -29q6 -5 12 -9.5t12 -8.5q6 -26 29 -29q29 -21 47 -26q84 0 89 85t15 141q-4 20 -0.5 38t6.5 38q12 18 8 33t27 12q4 -12 10.5 -18.5t12.5 -17.5q6 -2 10 -4 q-1 -9 -1.5 -18t-0.5 -18q-6 -4 -11 -7.5t-10 -6.5v-8v-8q6 -3 18 -11q0 -20 -9 -57q-3 -1 -4.5 -2t-3.5 -1q-2 -26 -8 -50t-6 -51q-21 -9 -26.5 -35.5t21.5 -33.5q6 -4 18 -19t23 -24zM240 515q12 2 19 2q60 24 61 63t1 101l-2.5 2.5t-1.5 3.5q-5 36 -12 72.5t-10 73.5 q-9 18 -25 22.5t-21 21.5q-65 10 -65 -45q3 -2 5.5 -3.5t5.5 -2.5q-1 -2 -20 -28q0 -38 -4 -76t10 -73q-6 -16 -0.5 -35t6.5 -35q11 -33 16.5 -42.5t36.5 -21.5zM690 309q19 2 45 8q39 24 42.5 43t6.5 67q-20 24 -48.5 25t-58.5 1l-2 -4t-1 -3q-2 0 -4 0.5t-3 1.5 q-5 10 -15 18q-35 3 -67.5 9t-66.5 6q-24 -24 -22.5 -41t9.5 -45q28 -39 84 -58t101 -28zM573 11q4 2 7 2v2.5v3.5h-4.5h-3.5q0 -5 1 -8zM249 0q-78 19 -136 54q-9 12 -39 39q-14 30 -25 56t-20 59v420v420q5 31 15.5 57t22.5 55q38 38 58 57q28 12 55.5 21t56.5 21 q157 7 316 5t318 -2q67 -3 136 -28q125 -64 125 -214q1 -5 2.5 -10t3.5 -9v-365v-364q-2 -6 -3.5 -11.5t-2.5 -11.5q0 -33 -15.5 -102.5t-52.5 -79.5q-24 -33 -69 -46t-83 -20q-166 -1 -332 -1h-331z" />
<glyph unicode="P" horiz-adv-x="1193" d="M556 889h6.5h6.5q-2 14 -8 21h-5h-4q0 -11 4 -21zM610 886q10 2 14 5q0 22 -21 22q-2 -2 -4 -8q4 -10 11 -19zM563 668q57 2 111.5 20t54.5 91q-11 11 -26 41q-22 22 -55 2t-60 -23q-14 12 -42 34q-12 21 -38 30t-44 -9q-20 -8 -31 -7q-36 -18 -21.5 -44.5t26.5 -50.5 q52 -53 125 -84zM90 623q3 1 5.5 2.5t5.5 3.5v5v6q-4 1 -11 -1q-2 -9 0 -16zM534 614h2.5h4.5v4v5q1 -1 -22 3v-3.5v-2.5q3 -2 7 -3.5t8 -2.5zM341 611q9 1 22 16.5t4 25.5q-30 -3 -26 -42zM629 452q14 2 14 14q-3 0 -5.5 0.5t-5.5 0.5q-4 -6 -5 -7q2 -4 2 -8zM21 0 q-3 2 -8 7q2 129 2.5 190t0.5 297q11 23 1 39q0 175 -0.5 350.5t-0.5 351.5q-4 7 0 24q1 0 3 1l4 2h408h408q40 -2 51 -4.5t26 -37.5q1 -31 10 -51q3 -1 6.5 -1.5t7.5 -0.5q6 7 20 6q2 -3 3.5 -5t4.5 -4q9 3 10 3q3 10 11 28q-9 18 -17 19t-8 25q20 10 52.5 -14t48.5 -36 q28 -37 51 -99q4 -36 5 -43t4 -11v-248v-247q-15 -67 -42 -103t-79 -76q-32 -10 -45 -13.5t-60 -12.5h-77h-76q-19 6 -34 0q-49 -1 -97.5 -2t-96.5 -1q-3 -4 -5.5 -7.5t-5.5 -6.5l-2 -158t-1 -157q-2 -1 -4 -3q-120 -1 -240 -1h-239z" />
<glyph unicode="Q" horiz-adv-x="1182" d="M121 1026q2 0 8 2v6v6h-6.5h-5.5q-1 -8 4 -14zM109 966q12 2 19 3q14 42 -29 38q1 -27 10 -41zM58 500q48 3 48 52q-23 11 -38.5 -10t-9.5 -42zM581 281q31 1 47 9q0 1 0.5 3t1.5 4q18 7 20 29.5t8 39.5v257v257q-8 23 -9.5 42.5t-19.5 38.5q-62 28 -72.5 -9.5 t-25.5 -80.5v-249.5v-248.5q6 -33 13.5 -54t36.5 -38zM996 -165q38 8 43 11v6.5v5.5q-49 7 -43 -23zM1117 -197q20 4 32 8v6.5v5.5q-24 10 -40 0q0 -12 8 -20zM1342 -292q10 2 16 3q-1 3 -3 7q-9 0 -13 -1v-4v-5zM1339 -422q-2 -1 7 2q1 11 2.5 21.5t3.5 20.5q3 3 17 5t23 5 v6.5v6.5q-28 5 -41 5q-16 -16 -32.5 -11.5t-16.5 28.5q30 2 46 3q3 12 -6 16t-10 16q-42 -1 -46 -11.5t-25 -48.5q0 -20 36 -34q20 10 28 10q7 -11 7 -37q4 -2 7 -3zM1253 -441h6h6q1 15 -3 32h-6h-6q0 -8 1 -15.5t2 -16.5zM1465 -482q7 0 17 2v6v6q-19 19 -40 19 q0 -3 -0.5 -5.5t-0.5 -5.5q8 -8 24 -22zM1259 -511q2 1 3.5 1.5t4.5 0.5q-1 6 -1.5 11t-0.5 9h-5h-4q2 -14 3 -22zM1205 -584q-10 4 -16 6v7v6q29 2 35 0q1 -4 1 -13q-4 -4 -20 -6zM1459 -844q-3 5 -9 7q-2 17 -6 25q-45 3 -43 30q4 3 8.5 6t9.5 6q3 -9 -2 11h-11.5h-11.5 l-4 4l4 8q20 3 40 3q39 -7 49 -1q-1 3 -1 9q-15 12 -59 15q-54 35 -92 102q-32 8 -56.5 17t-33.5 43q4 11 4 23q-13 8 -22 16q-4 -11 -4 -24q-26 -8 -38 -12q0 -9 1.5 -12.5t1.5 -9.5q-22 -14 -33 -20q-1 -15 7 -23t8 -23q-8 -11 -8 -17q24 -4 41.5 -6.5t31.5 -22.5 q56 -4 77 -45q0 -40 -14.5 -28.5t-32.5 23.5q-4 -1 -10 -3q-11 -22 -47 -31t-57 2q-33 42 -63.5 86.5t-60.5 87.5l-2 12t-1 12q-29 39 -50.5 71.5t-7.5 80.5q0 31 -3 46t-33 22q-115 70 -252 115q-55 27 -110.5 64t-89.5 89q-24 20 -37 46t-40 38q-39 2 -77 2t-76 1 q-93 23 -169 98q-23 47 -35 102v428.5v428.5q3 7 4.5 18t11.5 42q14 36 34 57.5t50 48.5q39 23 76 29t82 9q216 0 334.5 -0.5t179 -0.5t83 -0.5t47.5 -1.5q93 -20 149 -76q12 -19 36 -59q7 -21 19 -63q0 -41 7 -57v-266.5v-266.5q-6 -20 0 -37v-95v-93q-8 -19 -9.5 -38 t-3.5 -38q-5 -14 -10 -27.5t-9 -26.5q-14 -19 -44 -57q-30 -20 -58 -35.5t-64 -22.5q-81 -2 -96 -2.5t-24 -2.5v-7v-7q8 -2 22 -18q37 -18 80 -35.5t75 -44.5q29 -6 61 -9q14 -8 44 -22q33 -2 95 -4q48 -8 94.5 -24t95.5 -20q25 -12 45.5 -12.5t34.5 -29.5q25 -7 40 -7.5 t33 -28.5q0 -33 -51 -61q-26 -6 -52.5 -10t-51.5 -12q0 -2 0.5 -4.5t1.5 -5.5q12 -2 22 -1t23 1q16 -8 58 12q34 0 78.5 -18.5t66.5 -48.5q0 -31 -1.5 -54.5t-16.5 -51.5q-1 -5 -1 -15q50 -9 77.5 -55.5t27.5 -94.5q-6 -13 -26 -36q-8 -2 -41 -11t-37 -3q0 36 1.5 54t4.5 60 q-25 1 -68 25q-15 33 -49 34q-1 9 0.5 15t0.5 10h-5h-4q-8 -8 -10 -14q-5 0 -13 2q6 36 49 48.5t30 46.5q-28 -2 -32 7q-7 -3 -13 -17q-22 -13 -36.5 -27t-33.5 -32v-17.5v-17.5q-13 -19 -12 -31q17 -14 31 -21q15 -33 31 -67t32 -67q10 -86 -77 -93z" />
<glyph unicode="R" horiz-adv-x="1189" d="M517 1115q11 7 12 16t16 15v6.5v6.5q-16 -6 -36 -24v-8v-7q7 -5 8 -5zM174 798q13 1 16 19q-4 -1 -7.5 -1.5t-6.5 -0.5q-3 -7 -2 -17zM127 766q23 7 14 27h-8h-7q-8 -13 1 -27zM704 687q-6 20 -2 39h6h6q4 -27 2 -39h-6h-6zM590 557q-8 5 -12 13q2 5 9 8q8 -5 15 -21h-6 h-6zM786 528q3 11 19 16v-6.5v-6.5l-10 -2t-9 -1zM650 512q-6 7 -18 19q1 2 4 5h6h6q12 -14 14 -24h-6h-6zM742 496q-12 1 -24.5 2.5t-24.5 3.5q-5 10 -5 45q22 8 24 12q-11 13 -18.5 20.5t-10.5 13.5q1 2 4 4q9 -4 23 -11t25 -4q6 20 19 21q0 -2 -3 -37q-15 -2 -32 -11 q-2 -35 23 -35q14 24 24 34q2 -3 4 -13.5t5 -12.5q0 -25 -33 -32zM770 297q-12 12 -1.5 25t24.5 13q-3 -31 -23 -38zM739 195q-2 2 -3.5 4.5t-2.5 5.5q12 8 21 21q3 0 6.5 -0.5t7.5 -0.5q-1 -6 -2 -11t-1 -10q-11 -7 -26 -9zM846 141h5h5v14.5v14.5h-5h-5v-14.5v-14.5zM35 0 q-7 2 -8 8v618.5v618.5q5 13 14 17q217 0 435.5 4t436.5 -7q14 -5 40 -10.5t55 -14.5q13 -7 26.5 -14t27.5 -13q4 -9 15 -20.5t21 -23.5q37 -75 37 -145t1 -148q-5 -12 -7.5 -27t-11.5 -23q-5 -22 -9.5 -33.5t-4.5 -17.5q-12 -2 -24 5q-7 -3 -14 -17q-7 -4 -21 -10 q2 -32 -1 -38q-6 -2 -17 -8.5t-59 -25.5q-10 -10 8 -32q-5 1 30 1q46 -26 87 -61q16 -30 25 -48q7 -31 10.5 -54.5t8.5 -37.5q-1 -110 -2 -219.5t-1 -219.5q-10 -6 -105 -5t-106 8q-13 0 -21 -6q-43 0 -64 1q-3 4 -4 8q-8 0 -11 1q-6 -12 -21.5 -11t-25.5 1q-2 1 -3.5 2.5 t-2.5 3.5q0 45 4.5 90.5t4.5 91.5q22 45 25 102q41 65 58 120q6 42 15 82.5t29 79.5v17.5v17.5q-12 23 1 49t-19 44q-15 0 -39 -6t-27 -24q-4 0 -6 -1q-12 -17 -22.5 -29t-12.5 -18q-10 0 -14 -1v9.5v9.5q7 6 12 25q21 16 33 23q18 30 24 81.5t-21 79.5q-51 19 -86 26 q-1 8 1 17.5t2 33.5q-16 40 -39.5 72t-69.5 32q-21 -13 -37 -25q0 -7 2 -25q-10 4 -15 5q-8 -6 -10 -12q16 -27 66 -34.5t17 -40.5q0 -33 19 -66q0 -13 -7 -17.5t-7 -16.5q16 -2 23 -3q0 -3 0.5 -5.5t1.5 -5.5q-20 -3 -28 -4q1 2 -2 -7q1 -2 5 -6q24 0 42 10t40 21 q6 -1 12.5 -2.5t13.5 -1.5q-2 -8 -2 -11q-3 -1 -7 -3q-2 -7 -4 -21q-5 -1 -10 -1.5t-9 -0.5q-12 -13 -43.5 -20t-46.5 2q-9 9 -41 9q-4 7 -4 36q-21 30 -31.5 46t-28.5 43q-22 37 -71 42.5t-50 -48.5q12 -20 5 -32q-2 -1 -5 -1q0 -15 7 -24q6 -1 16 0t16 0q0 -11 -6 -17 t-2 -15q5 2 15 4q11 19 15.5 35.5t13.5 36.5h7.5h8.5q2 -30 -9 -45t4 -44q0 -45 25 -85q0 -34 -11 -65t42 -43q0 -18 1 -27h-12h-11q-23 -19 -37 -19q0 3 0.5 6.5t1.5 7.5q10 2 24 21q-2 6 -10 9q-5 -2 -10 -5q-15 -39 -50 -39q-11 24 -40 27v2.5v3.5q1 0 2.5 0.5t3.5 0.5 q12 27 12 80q20 18 7 43.5t-33 35.5q-2 -1 -6 -5q-3 -10 -4 -30l-4 -2t-3 -1q3 -1 5.5 -2.5t5.5 -1.5q-6 -2 -12 -3t-11 -2q-3 -6 -7 -18q-63 -21 -39 -73.5t40 -91.5q15 -22 24.5 -44t29.5 -41q2 -18 16 -49t30 -37q6 -14 32.5 -24t41.5 -16q8 -9 16 -13q0 -15 -9 -30 q6 -41 3 -81t-3 -80q-6 -15 -8 -29.5t-8 -38.5q-7 -6 -65.5 -6.5t-69.5 -0.5v5v6q6 2 10 2q2 6 0 9h-17h-15q-1 -7 3 -22h-171.5h-170.5z" />
<glyph unicode="S" horiz-adv-x="1204" d="M186 1032q10 4 14 5q4 7 4 18q-15 9 -25 4v-11.5v-10.5q4 -2 7 -5zM101 899q12 3 17.5 7t10.5 6q4 41 -36 4v-6v-6q2 -1 8 -5zM396 636q3 0 6.5 0.5t6.5 1.5q0 15 -23 17q-2 -6 0 -16q6 -2 10 -3zM389 595q3 0 7.5 1t8.5 2q-2 6 -2 10h-6h-5q-1 -3 -2 -6.5t-1 -6.5z M687 332q3 0 11 2q0 14 -11 17q-2 -6 0 -19zM224 0q-46 10 -69 16q-92 53 -132 147q-5 69 -6 81.5t-4 20.5q0 48 0.5 97t0.5 98q1 0 3 1l4 2q118 0 236 1.5t237 2.5q11 -4 14 -8q0 -46 9.5 -125.5t91.5 -30.5q24 30 21.5 72.5t-15.5 76.5q-124 73 -263 114.5t-260 123.5 q-24 30 -31 40.5t-26 41.5q-3 9 -6 18.5t-6 19.5q-14 102 -11.5 208t76.5 187q43 28 85 44q32 4 60 10q325 15 683 0q19 -6 47 -10q14 -6 28.5 -12.5t29.5 -12.5q35 -27 77 -84q26 -66 25.5 -134.5t-0.5 -139.5q-3 -1 -4.5 -2t-3.5 -1h-236.5h-236.5q-2 0 -4 1t-3 2 q-11 29 -12 62t-38 46q-79 0 -71 -84q14 -18 53 -43q43 -17 86.5 -34t87.5 -34q1 -5 3 -9.5t4 -8.5q10 -3 19.5 -1.5t21.5 1.5q73 -30 140 -59t130 -80q7 -12 7 -35q6 -9 17.5 -21.5t26.5 -30.5q12 -60 15 -119.5t8 -118.5q-7 -17 -4 -42q-3 -7 -3.5 -16t-2.5 -54 q-10 -37 -13 -47q-34 -78 -140 -125q-23 -4 -67 -12q-170 -1 -339.5 -1h-339.5z" />
<glyph unicode="T" horiz-adv-x="1097" d="M724 157q4 2 5 2v6v6q-6 0 -10 -4zM208 0q1 -4 -2 13q17 12 34 25.5t35 26.5v187t1 188q4 21 0 37q-3 164 -4 192t-2 33q-37 13 -90.5 9t-92.5 -4q-34 -42 -50 -63q-4 1 -11 1q-11 40 2 83v108.5t1 108.5q9 7 23 -6q3 0 5.5 0.5t5.5 1.5q-3 27 -8 39q-10 3 -16 -0.5 t-15 -4.5q-1 22 -1 65q3 3 14 3q10 -15 23 -33t31 -24h84.5h85.5q10 7 11 8q0 52 1.5 104t2.5 104q-15 18 -38 30.5t-25 35.5q153 0 307 0.5t307 -0.5v-6v-6q-47 -32 -57 -54v-104.5v-103.5q-13 -39 30 -11q39 0 79 1t79 2q18 11 28.5 26t22.5 31h5.5h5.5q12 -15 4 -53 t-10 -56q0 -51 1 -103t2 -103q7 -19 7 -39.5v-40.5q-5 -4 -16 -3q-33 42 -40 49.5t-13 13.5h-82h-82q-10 -4 -18 -12l-2 -322t-1 -321q11 -11 17 -16t33 -24q0 -10 -1 -13h-306h-305z" />
<glyph unicode="U" horiz-adv-x="1200" d="M326 1251q6 0 13 0.5t14 1.5v4v5q-4 3 -34 3v-5v-4q4 -2 7 -5zM792 1108h4.5h5.5v11v11h-5.5h-4.5v-11v-11zM707 1048q-12 6 -14 15q-4 2 -12 4q-3 -9 2 11q23 0 33 -27q-3 -1 -5 -2t-4 -1zM1087 991q13 3 25 14t-12 20q-16 -9 -21 -21q1 -2 8 -13zM729 937q-5 8 -13 13 q-5 15 -4 23q16 14 20.5 -5t5.5 -28q-3 -1 -5 -2t-4 -1zM583 734q-5 7 -4 14q15 13 29 15q-4 -23 -25 -29zM745 731q-3 12 -3 13h4h5v-6.5v-6.5h-3.5h-2.5zM447 706q3 0 6.5 0.5t7.5 1.5q0 28 -18 28q-3 -4 -4 -8q2 -8 8 -22zM526 696q0 3 -0.5 7t-0.5 7q8 8 22 6 q-6 -7 -8 -17q-1 0 -13 -3zM691 671q-4 8 -12 22q-15 0 -25 -6t-25 -4q11 12 20 23.5t-13 20.5v21v22q13 9 31 8t35 -1q22 -26 24 -30q-6 -2 -8 -4q-3 -5 -4 -13h-6h-6q-10 16 -14 25h-7h-6q-37 -39 22 -49q3 -35 4 -33q-16 -4 -10 -2zM123 607q6 2 8 2v8v8q-12 0 -14 -14 q4 -2 6 -4zM650 547v20.5v21.5q6 -2 10 -2q4 -30 0 -38q-4 0 -10 -2zM1084 541q3 0 7 2v2.5v3.5h-4.5h-3.5q0 -3 0.5 -4.5t0.5 -3.5zM254 0q-19 5 -37.5 11t-36.5 12q-65 36 -89 79t-39 115v398v399q24 36 53.5 11.5t58.5 5.5q25 8 34 17q-2 8 -2 11q-11 5 -21 2.5t-20 -2.5 q-25 13 -52 29q-43 4 -51 20q-1 35 -2 69.5t-1 69.5q2 10 11 15q36 0 82 -2t79 15q39 0 79 1t81 2q28 -6 43 -6q43 21 62 -33q0 -49 8 -100.5t-1 -99.5q8 -13 8 -32q-31 -18 -42 -23.5t-44 -19.5q-43 -53 -49 -95q-33 -30 -52 -75.5t-37 -84.5q-3 -10 -6.5 -20t-6.5 -20 q4 -16 26.5 -39t39.5 -26q1 -4 3 -14q1 0 2.5 -0.5t3.5 -0.5q1 -8 -0.5 -17.5t1.5 -13.5q25 -7 35 18t10 44q-3 4 -6.5 9t-6.5 10q0 19 -0.5 39t-12.5 38l0.5 1.5t1.5 2.5q19 0 34 31q12 0 22 -6t22 -5v3.5v4.5h7h8q22 -23 47 -17q-2 -16 -2 -26q-39 -18 -42 -36.5t10 -57.5 q0 -24 -9.5 -43.5t-18.5 -40.5q3 -11 3 -25q-16 -21 -6.5 -38.5t9.5 -41.5h-6h-6q-12 17 -17 43.5t-29 30.5q-4 -12 1.5 -16.5t5.5 -15.5l-21 6q-17 -11 -17 -30q15 -7 2 -28q-2 -33 16 -44q73 -22 95.5 21t67.5 98q0 33 5 36.5t38 6.5q18 16 41 3h16h17q16 -16 34 -21 q1 -5 5 -15q20 -8 17 -7v-5v-5q-24 -2 -35 -4q-24 12 -40 21.5t-41 8.5q0 -8 -1 -12q21 0 26 -2v-6.5v-6.5q-9 -2 -22 -5v-4.5v-3.5q26 -18 0 -52.5t5 -43.5q0 -5 0.5 -9.5t0.5 -7.5q-23 -10 -50 -19.5t-44 -27.5q0 -4 2 -14h8.5h10.5q0 -7 2 -25q3 -2 32 -19q82 0 112 100 q0 25 -1.5 34.5t-0.5 20.5q54 0 97 33q3 9 6.5 17t7.5 17q-7 30 -9 74t-41 54q-4 8 -11 11q0 7 -2 17q-18 11 -12 29q4 0 10 -2q16 -19 64.5 -62.5t69.5 4.5v17v17q-12 22 -6 31.5t6 32.5q-31 66 -44 161q-13 37 -31 70.5t-33 69.5q0 28 -6.5 51t-15.5 50q10 43 -6 89t-2 89 q34 10 56 -11q35 27 93 3q72 0 144.5 -1.5t144.5 -1.5q15 -8 11.5 -30.5t-7.5 -35.5q4 -18 7 -27v-481v-480q-2 -3 -7 -16q-3 -29 -12.5 -52.5t-21.5 -48.5q-25 -32 -52.5 -49t-63.5 -32q-41 -5 -49 -6t-14 -3q-174 -1 -346.5 -1h-344.5z" />
<glyph unicode="V" horiz-adv-x="1285" d="M842 1172q23 3 23 30q-3 0 -5.5 0.5t-4.5 0.5q-7 -13 -13 -31zM810 1143q8 2 11 2q2 4 0 39q-13 -21 -11 -41zM677 129q1 0 8 5v2.5v2.5q-4 1 -11 1q-2 -2 3 -11zM700 65q6 2 10 2q0 13 -6 19h-6h-6q0 -12 8 -21zM855 46q4 2 7 2l4 8q-2 5 -11 11q-6 -5 -7 -18q1 0 7 -3z M306 0q-6 3 -7 4q-15 69 -29.5 139.5t-28.5 140.5q0 25 -0.5 34.5t-15.5 31.5q-12 90 -33 178t-36 178q-17 39 -24.5 90t-13.5 93q-6 15 -14.5 63t-36.5 191q-24 58 -22 116l1.5 1t2.5 2q227 1 350 2t180.5 1t68 -0.5t13.5 -0.5q2 -19 -3 -31t13 -23v-5.5v-4.5q-7 0 -23 -2 q-17 -22 -35 -45.5t-42 -37.5q-67 -70 -114 -160q-8 -6 -26.5 -22t-19.5 -25q-13 -2 -28.5 -27t-21.5 -37q-30 -13 -33 -24q-15 -4 -27 -36q-18 -17 -30.5 -37.5t-25.5 -40.5q0 -4 0.5 -7.5t0.5 -6.5q25 0 48 23t36 43q18 15 62.5 57t67.5 41q24 -33 13.5 -51t-31.5 -48 q-7 -16 -14 -46q-62 -74 -63 -159q-8 -6 -22 -20v-9v-7q16 -17 41 6q21 55 53 103.5t58 102.5q7 12 21.5 33t29.5 -7q0 -35 -32 -90v-21v-21q-16 -15 -23.5 -42t-11.5 -47q0 -30 -14 -58.5t-9 -58.5q9 -3 11 -4q35 19 53 82q29 53 51 123q14 26 21 54t25 52h9h11 q13 -16 16 -26q-2 -57 -4.5 -138t-27.5 -134q3 -10 16 -19q25 13 35 53q22 44 31 92.5t17 97.5q6 16 13 54q15 39 26 73t57 49q19 0 25 -11t23 -16q0 -3 1.5 -5.5t2.5 -5.5q29 -10 29 -48v-61q14 -18 33.5 -44.5t46.5 -22.5q0 3 1 5.5t2 5.5q-18 34 -27.5 72.5t-16.5 77.5 q-2 42 -2.5 82t-31.5 72q-13 36 -29 64q-2 0 -3.5 0.5l-1.5 0.5q-1 2 -1 6h-3.5h-2.5q-14 28 -29 55t-47 37v4.5v5.5q12 5 34 7q4 12 2 8q-3 6 -11 18q-28 19 -14.5 70.5t36.5 62.5q94 0 188.5 0.5t189.5 0.5q7 -1 14.5 -2.5t14.5 -1.5q9 -19 -6 -72t-15 -60 q-19 -33 -21.5 -62.5t-4.5 -67.5q-13 -60 -24 -126t-30 -124q-18 -126 -48.5 -250.5t-52.5 -248.5q0 -30 -13 -59q-9 -45 -16.5 -93.5t-21.5 -91.5l-3.5 -3.5l-2.5 -2.5q-169 -1 -337.5 -1h-336.5z" />
<glyph unicode="W" horiz-adv-x="1813" d="M338 1140q2 0 4.5 0.5t5.5 1.5l4 8q-2 4 -4 7q-8 1 -12 -3q0 -4 0.5 -7.5t1.5 -6.5zM1498 674q8 2 13 3q1 16 -2 24q-11 0 -15 -3q-2 -15 4 -24zM915 427q-6 3 -16 9v6.5v6.5q11 -1 26 -11v-5v-4q-6 -2 -10 -2zM804 360q-3 1 -5.5 2.5t-5.5 3.5v5.5v5.5q12 3 36 2 q3 9 -2 -11q-14 -7 -23 -8zM503 145q16 1 20 5q0 11 -3 15q-6 -1 -11 -1.5t-9 -0.5q-3 -12 3 -18zM1083 125q1 1 3 2.5t4 3.5q0 13 -9 31q1 1 2 2.5t3 3.5q5 0 10.5 -0.5t11.5 -0.5q-2 7 -5.5 14.5t-3.5 16.5h2.5h3.5q1 9 8 15q16 -10 30 -8q1 6 8 11q20 55 18 111.5 t14 111.5q0 30 8 70.5t32 61.5q0 15 -4.5 19t-7.5 16q0 2 1.5 4t2.5 5q40 1 53 24t38 56q5 15 10.5 29t11.5 29q0 40 -42 38q-10 -17 -24 -33l-8 -26t-7 -25q-40 -31 -46 -64q-23 -19 -59.5 -54t-63.5 6q-16 63 -15.5 124t-0.5 127q-9 24 -12.5 92t-60.5 23q-1 -45 6 -91.5 t10 -91.5q11 -35 5.5 -70t13.5 -70q0 -2 -2 -6q-12 0 -23.5 1t-23.5 2q-19 28 -18 66t-9 72q-2 54 -3.5 109t-3.5 109q-24 43 -53 14q-2 -24 -5 -119.5t21 -104.5q0 -4 -0.5 -8t-0.5 -7q-12 -18 -4 -34t17 -33q0 -21 -17 -54t-43 -6q-5 21 -10 41.5t-9 41.5q-3 50 -5.5 79 t-4.5 108q-20 51 -52 35q-2 -16 -1 -28t-4 -26v-56v-56q16 -33 7.5 -79t21.5 -72v-9v-7q-8 -4 -11 -7q-33 -76 17 -110q0 -16 -6 -16t-16 -9v-6v-6q2 -3 4 -4.5t5 -3.5q0 -17 -14 -19t-20 -15q0 -13 1.5 -19.5t1.5 -12.5q-23 -12 -50.5 32t-33.5 56l-25 10q-2 18 -2 26 q-19 18 -45 49t-56 12v-10v-9q3 -2 9 -8q15 -43 28.5 -71.5t53.5 -49.5q0 -27 10.5 -49t18.5 -47q4 -6 9 -10.5t32 -25.5q18 -38 59 -79t82 -53q30 0 62 -3t58 -19q13 0 26 3t28 4q0 -4 1 -6q-2 1 13 -5q10 5 7 4q0 2 1 4.5t2 5.5q8 2 14 2q12 -15 20 -21zM988 78 q5 0 11 0.5t12 1.5q0 3 0.5 6.5t1.5 7.5q-19 5 -36 4q-3 -3 -4 -7q3 -8 15 -13zM509 71q2 1 8 3v4v5q-8 0 -13 -5q-1 2 5 -7zM274 0q-12 6 -16.5 34.5t-7.5 40.5q-17 125 -48.5 249.5t-46.5 250.5q-18 47 -21.5 99.5t-22.5 97.5q-7 60 -22.5 118.5t-21.5 119.5q-4 6 -7 16 q-6 55 -24.5 116t-16.5 117q2 1 4 3h244h245q2 -1 3.5 -2t4.5 -1q7 -38 13 -72t9 -72q6 -16 3 -31.5t6 -27.5q11 -66 19 -133t25 -131q2 0 4.5 1t5.5 2q19 99 43.5 198.5t39.5 200.5q23 58 23.5 63t66.5 5q23 -14 41 0q57 -5 116 -2.5t117 2.5q6 -6 8 -9 q33 -114 52.5 -231.5t53.5 -229.5h3h5q8 30 8.5 64t12.5 63q5 60 18.5 121.5t13.5 122.5q8 21 10.5 46.5t5.5 49.5q1 0 3 1l4 2q369 0 431 -0.5t68 -0.5q0 -9 1 -14q-72 -334 -124 -633q-12 -30 -16 -63.5t-9 -63.5q-12 -30 -15.5 -63t-9.5 -64q-24 -57 -28 -122t-23 -122 q0 -13 -8.5 -60t-18.5 -55q-107 -1 -214 -1h-214q-1 9 -1.5 19.5t-0.5 20.5q8 12 9 22q1 -1 -29 -8q-52 9 -76 3q-6 -9 -10.5 -18.5t-10.5 -21.5q-8 -5 -15.5 -9t-13.5 -7q-162 -1 -324 -1h-324z" />
<glyph unicode="X" horiz-adv-x="1275" d="M664 731q20 2 29 2q0 3 1 5.5t2 5.5q-20 7 -33 1q0 -9 1 -14zM825 655q8 4 11 5q1 6 3 13t4 13l-4 6t-3 6q-14 0 -18 -4q-2 -28 7 -39zM699 468l-12 4t-12 5q-29 51 4 96q3 0 29 -4q-2 42 15 71q12 2 17 2q5 -21 7 -52.5t20 -44.5q20 13 28 21t31 -15q0 -3 0.5 -5.5 t0.5 -4.5q-11 -8 -33 -14q-24 -18 -45.5 -37.5t-49.5 -21.5zM607 411q1 11 7.5 20.5t9.5 22.5q-25 32 -1 51q36 -25 8 -59q-8 -15 -9.5 -21t-4.5 -12q-3 -1 -5.5 -1.5t-4.5 -0.5zM36 -7q-5 6 -5 22q48 159 96.5 317t97.5 317v11v11q-67 230 -90.5 305t-74.5 256q-8 13 -6 27 q2 2 4 3h240h240q22 -37 30.5 -91.5t14.5 -96.5q12 -45 21.5 -89t18.5 -88q3 0 6.5 0.5t7.5 1.5q14 74 31 147.5t29 147.5q14 21 33.5 24t20.5 37q2 3 6 7h222h222q3 -7 3 -18q-39 -126 -65.5 -212t-112.5 -369q49 -162 99 -324t101 -324q0 -11 -4 -14h-250h-249 q-6 6 -7.5 34t3.5 37q0 168 -0.5 202.5t-2.5 70.5q2 3 8 11q75 29 98 93q36 27 51 33t12 51q-13 7 -26 13q-2 6 -2 8q4 0 6 1v1.5v3.5q20 9 29.5 25.5t-14.5 33.5q-8 -7 -50 -16q-41 28 -55 55q3 29 -15 43q-37 0 -58.5 1t-40.5 -29h-14h-13q-18 -13 -29.5 -23.5 t-21.5 -15.5q-27 -27 -42.5 -101.5t-0.5 -111.5q8 -105 10.5 -208t8.5 -206l-3.5 -3.5l-2.5 -2.5q-124 -1 -248.5 -1t-247.5 -2q-4 0 -19 -5z" />
<glyph unicode="Y" horiz-adv-x="1298" d="M530 1089q-5 10 -3 19q4 0 8 0.5t9 1.5q0 -9 -3 -11.5t-4 -9.5h-4.5h-2.5zM508 1007q0 4 -0.5 8t-0.5 9l2.5 2.5l3.5 3.5q9 0 14 -1q-3 -19 -19 -22zM622 845q-4 2 -7.5 4t-6.5 5q-1 2 -1.5 4.5t-0.5 5.5q20 -2 20 -17q-1 -1 -2.5 -1.5zM581 801q-13 8 -22.5 5t-20.5 1 v5.5v5.5q8 6 22 18q0 13 -8 20q-3 0 -11 -2q-8 -16 -10 -19h-2.5h-2.5q-27 33 8 40t58 -10q-4 -24 -19 -36v-3.5v-2.5q3 -2 9 -8q0 -4 -0.5 -7.5t-0.5 -6.5zM514 769q4 12 6 17q6 2 10 2q-3 -17 -16 -19zM568 699q-6 7 -3 32q3 0 11 -2v-14v-14q-2 0 -8 -2zM787 278q2 0 4 1 t5 2q0 4 -2 14h-6h-5q-2 -11 4 -17zM372 0q-9 21 -2 43.5t0 43.5q0 30 0.5 60.5t-3.5 60.5q8 27 2 54t5 55q-3 12 -4 22.5t-3 58.5q9 39 -1 71t-25 69q-9 16 -17.5 32t-16.5 33q-40 93 -82.5 185.5t-88.5 182.5q-2 6 -4 11.5t-3 11.5q-57 119 -77 162t-44 91q2 10 2 14 q4 0 60.5 0.5t391.5 0.5q1 -2 5 -6q12 0 22 3t23 3q9 -12 5 -71.5t-4 -79.5q-16 -40 -16 -73q-48 -68 -57 -165q-17 -25 -18 -47.5t-1 -50.5q-10 -19 -10 -34q33 -41 52 -12.5t51 37.5q-1 -16 -8 -30q-37 -15 -40 -61t23 -72q35 -13 65 -20q0 -11 -3 -25q11 -39 37 -74 t75 -6q1 12 18 25q-2 10 -2 14q-43 19 -51.5 22.5t-14.5 4.5v7.5v8.5q15 3 4.5 29t-13.5 32q2 3 8 46q-22 -1 -38.5 -11.5t-38.5 -10.5q0 27 28.5 38.5t52.5 11.5q22 -14 42 -16q4 -8 4 -24q22 -32 68 -96q20 -8 53 -1t12 40q0 18 4.5 26.5t-22.5 11.5q-1 13 -5 18 q-17 -16 -28 -51h-6h-6q0 4 -0.5 8.5t-0.5 9.5q23 41 -0.5 72t-8.5 74q0 27 -4 37q-9 8 -20 14t-6 21q12 3 22 -6.5t20 0.5q-1 7 -10 13q11 1 22.5 5.5t22.5 4.5q14 -19 28 -22q0 -21 -14.5 -76.5t34.5 -48.5q0 12 -8 23q6 4 24 9q6 21 22 27.5t16 35.5l-26 54t-25 54 q-28 41 -44 75.5t-66 55.5q-21 14 -23 24q9 15 6 35t-3 38q8 26 5.5 66.5t21.5 55.5q23 0 45.5 0.5t46.5 1.5q0 -3 0.5 -5t0.5 -4q14 0 21 7h96h96q16 -17 18 -44.5t11 -48.5q3 -1 6.5 -1.5t7.5 -0.5q13 14 28 -3q12 3 10 3q13 32 11 28q-7 15 -17 17.5t-8 22.5q-6 6 -16 20 q0 3 2 9h28.5t104.5 -2q15 -6 17 -21q-30 -60 -57 -121t-57 -120q-24 -54 -49.5 -107t-51.5 -105q-13 -38 -33.5 -71.5t-30.5 -71.5q-21 -42 -40 -84.5t-39 -83.5v-57.5v-56.5q-6 -13 -19 -22v-5v-4q8 -8 14 -10q0 -80 0.5 -159.5t0.5 -158.5q-1 -1 -2.5 -2l-1.5 -1 q-123 -1 -244.5 -1h-243.5z" />
<glyph unicode="Z" horiz-adv-x="1581" d="M165 1026q2 0 8 2v6v6h-6h-6q-1 -8 4 -14zM118 332q4 0 10 2q1 13 -10 17q-2 -6 0 -19zM679 110q4 1 14 5q13 46 6 63q-21 0 -28 -4q-10 -24 -12.5 -36.5t20.5 -27.5zM828 -10q-201 11 -404 10.5t-405 -0.5l-7 7q0 62 -0.5 124t-0.5 125q24 59 52 117t56 117q25 22 29 29 q11 78 51 144t63 141q19 36 36 74t37 75q-1 4 -1.5 9t-0.5 10q-39 1 -77 2.5t-76 3.5q-7 12 -27 31q-3 -1 -5.5 -1.5t-4.5 -0.5q-1 -23 -6 -29q-31 -1 -92 -1q-3 1 -4.5 3t-3.5 4v132v132q2 3 4.5 6.5t5.5 6.5q211 0 423 0.5t424 0.5q4 -2 7 -4q0 -68 0.5 -135.5t0.5 -134.5 q-25 -50 -31 -73q-21 -39 -38.5 -77.5t-38.5 -74.5q-19 -45 -39.5 -92t-46.5 -86q-13 -1 -23 2t-22 3q-13 -11 -34.5 -33.5t-1.5 -41.5q17 -3 30 11.5t31 17.5q-19 -76 -63 -124q-43 -23 -43 -72q8 -18 2.5 -30.5t-4.5 -30.5q27 -17 73 -10.5t76 15.5q9 0 20 -1.5t38 -1.5 q21 23 -16.5 66t12.5 59q11 19 22 30q20 5 47 3t36 -27h4h5q39 51 64 65q30 7 36 9t12 5v5.5v5.5q-54 30 -1 71q78 20 126 -56q36 -30 72 -70q5 -17 9.5 -33.5t10.5 -32.5q18 -22 22 -37q-4 -6 -7 -9q18 -29 56 9.5t48 47.5q33 17 41 68t8 86q-8 33 -5 77.5t35 66.5h15h17 q36 -19 46 -89t-1 -106q0 -37 -4 -73.5t-5 -72.5q-21 -26 -46 -45.5t-43 -46.5q-33 -27 -58 -58t-50 -63q-11 -6 -26.5 -11t-23.5 -10q-25 -49 -71 -62q-19 4 -55 12q-39 0 -73 -25.5t-69 -40.5q-30 -2 -45 -4q-26 -8 -51.5 -7.5t-52.5 -5.5z" />
<glyph unicode="a" horiz-adv-x="1301" d="M986 919q2 0 3.5 0.5l4.5 1.5q3 6 0 21q-8 4 -14 2q-2 -9 0 -22q1 -1 2.5 -2t3.5 -1zM793 697q19 5 23 9v12v12q2 1 13 7q0 7 2 17q-4 0 -7.5 0.5t-6.5 1.5q-2 -5 -3.5 -9t-2.5 -8q-16 -3 -21 -4q-6 -25 -4 -35q1 0 7 -3zM124 567q3 3 11 9q-1 6 -1 20q-4 0 -10 2 q-9 -12 -6 -28q1 -1 2.5 -2t3.5 -1zM558 555q16 0 41 -1.5t40 6.5q-2 30 -6 59t-4 60q-21 58 -15.5 128t-16.5 129q-6 2 -10 2q-3 -51 -10.5 -102.5t-10.5 -102.5q-2 -6 -6 -16q-3 -27 -12.5 -88t10.5 -74zM951 421q12 2 17 2q17 57 -30 80q-16 -7 -28.5 -30t-3.5 -40 q5 -3 21.5 -6t23.5 -6zM1053 345q13 2 17 6q0 29 -16 27.5t-7 -29.5q4 -2 6 -4zM320 279q35 4 28 25.5t-34 26.5q-6 -4 -14 -10q-1 -24 20 -42zM143 190q10 2 20 8v9v9q-7 4 -21 4q-10 -14 -10 -21q3 -3 11 -9zM254 123h6h6q2 25 -22 23q2 -12 2 -18q1 -1 8 -5zM-11 0 q-5 7 -5 26q15 45 18 95.5t19 97.5q4 27 6.5 55.5t12.5 55.5q0 11 3 26t3 24q13 57 21.5 116t22.5 116q0 64 20 108q9 104 33 207.5t36 207.5q12 29 13 68t20 63h380.5h381.5q1 -1 3 -2t4 -1q17 -106 36 -212t37 -211q15 -39 16 -81t16 -80q0 -30 6.5 -57t12.5 -54 q0 -38 9 -74t16 -72q8 -79 25 -156t26 -155q3 -11 13.5 -54.5t1.5 -51.5h-251.5h-251.5q-7 6 -8.5 21t-4.5 27q-3 48 -4.5 65.5t-1.5 58.5q-9 24 -5 50.5t-16 46.5h-57.5h-56.5q-21 -15 -18.5 -35.5t-5.5 -42.5q0 -42 -6.5 -84t-9.5 -84q-6 -20 -10 -23q-362 -3 -424.5 -3.5 t-75.5 -1.5z" />
<glyph unicode="b" horiz-adv-x="1197" d="M364 998q8 2 11 2v6v6h-6h-6q0 -3 0.5 -7t0.5 -7zM551 808q51 1 73 4t39 53q0 42 -3.5 66t-41.5 47q-12 0 -37.5 1t-33.5 -5q0 -24 -4 -87.5t8 -78.5zM833 577q37 6 20 43h-9h-8q-13 -17 -3 -43zM830 523q20 6 11 39h-6h-6q-7 -16 -5 -36q1 -1 2.5 -2t3.5 -1zM320 523 q23 3 23 39q-27 1 -23 -39zM298 481q12 5 15 20q-6 2 -17 -2q0 -5 0.5 -9.5t1.5 -8.5zM836 437q24 9 24 31t-1 45q-27 8 -32 -30.5t9 -45.5zM567 285q24 1 77 21q20 42 23.5 106t-36.5 97q-21 6 -47 12.5t-41 -14.5q0 -53 1.5 -105.5t2.5 -104.5q7 -7 20 -12zM57 3 q-7 3 -9 9v618.5v618.5q4 8 7 17q307 0 475 -0.5t252.5 -0.5t115 -0.5t62.5 -1.5q15 -5 52.5 -14.5t37.5 -31.5q-16 -31 -16 -43q15 -5 40 32q36 -2 55 -61t26 -86v-86v-86q-5 -27 -7.5 -37t-11.5 -45q-33 -52 -66.5 -77t-90.5 -45q0 -3 -0.5 -5.5t-0.5 -5.5q54 -23 90 -48 t68 -75q29 -78 25.5 -164t-3.5 -167q-10 -31 -12 -39.5t-4 -27.5q-9 -14 -19 -33.5t-21 -33.5q-32 -34 -56.5 -47t-69.5 -26q-38 -3 -47 -6q-219 -1 -437 -1.5t-435 -0.5z" />
<glyph unicode="c" horiz-adv-x="1197" d="M944 1071h2.5h3.5q4 12 4 33h-5h-3q-2 -22 -2 -33zM183 567q8 2 13 3q4 9 6 29q-7 2 -16 0q-5 -22 -3 -32zM696 475q8 2 11 2q4 9 4 32t-18 17q-3 -41 3 -51zM839 269q3 0 6.5 1t6.5 2l2.5 7.5t3.5 8.5q-5 1 -14 1q-4 -4 -5 -20zM757 180q9 2 12 5q-3 3 -12 5v-5v-5z M332 -2q-4 1 -10 3q-77 3 -135.5 24t-103.5 86q-24 42 -38 107v415.5v415.5q4 14 8.5 40.5t8.5 35.5q13 5 17 10q15 64 66 88.5t110 39.5q153 4 306.5 3.5t306.5 -0.5q90 -3 150 -25.5t114 -94.5q19 -71 29 -116q-2 -57 -3.5 -114t-1.5 -114q-122 0 -243.5 0.5t-242.5 1.5 q-3 42 -5.5 96t-47.5 78q-61 0 -60.5 -28t-17.5 -69v-254v-253q12 -36 26 -65.5t64 -11.5q18 11 25 32.5t12 41.5q0 40 1 80.5t3 82.5q2 2 4 3h240h240q0 -2 1 -4t2 -3q0 -95 2.5 -190.5t-14.5 -188.5q-9 -14 -19.5 -33.5t-20.5 -33.5q-56 -51 -113 -68t-135 -17 q-3 1 -5 1.5t-4 1.5h-249h-248q-7 -2 -19 -4z" />
<glyph unicode="d" d="M604 992q30 3 25 23.5t-33 -0.5q0 -14 8 -23zM686 745q3 0 11 2v6v6h-6h-6q0 -4 0.5 -7.5t0.5 -6.5zM395 615q2 0 4.5 0.5t5.5 1.5q4 7 2 20q-3 0 -4.5 1t-3.5 2q-6 -6 -9 -8q0 -8 5 -17zM480 450q3 0 5.5 0.5t5.5 1.5q-3 -9 2 11q-16 -4 -10 -2q-2 -2 -3 -3.5t-2 -2.5 q2 -4 2 -5zM512 282q41 3 71 9t57 40q0 118 1.5 236.5t1.5 237.5q14 33 3.5 76.5t-25.5 75.5q-22 12 -54 21.5t-50 -14.5v-296v-296q-2 -12 -3.5 -24t-2.5 -24q-4 0 -8.5 0.5t-7.5 0.5q-2 -31 17 -43zM30 3q-3 2 -4.5 3.5t-3.5 4.5v620.5v620.5q6 10 10 14q21 0 38.5 -1 t38.5 5q282 -2 435.5 -3t229.5 -1.5t100 -1t47 -1.5q39 -8 86 -24t65 -57q18 -14 34 -34q15 -30 18.5 -58.5t6.5 -60.5q-17 -20 7 -53v-364.5v-364.5q-6 -22 -8.5 -43.5t-7.5 -43.5q-6 -8 -13 -34q-18 -27 -36.5 -46t-40.5 -40q-29 -12 -55 -22t-56 -13q-223 -1 -446 -1.5 t-445 -0.5z" />
<glyph unicode="e" horiz-adv-x="880" d="M638 742q3 0 11 2q0 14 -11 17q-2 -6 0 -19zM26 3q-2 1 -3 2.5t-2 3.5q-1 288 -2.5 576t3.5 576q6 2 31 6.5t8 22.5q3 -1 -17 7v6v6q24 6 14 4q2 7 -17 19q-2 8 -2 14q7 4 13 10.5t12 9.5h332h333q18 3 45 3t43 -10v-136.5v-134.5l-5 -5l-4 -4q-70 0 -139 -0.5t-138 -0.5 q-4 -3 -8 -4.5t-7 -3.5q-8 -21 -7.5 -63.5t12.5 -61.5q8 -4 13 -7q69 -1 139 -2t140 -1q0 -1 1.5 -2.5t2.5 -1.5v-136v-135l-8 -4l-138 -2t-137 -1q-11 -4 -21 -18v-117.5v-116.5q8 -11 14 -14q70 -1 141 -2l142 -2q4 -4 7 -6v-135v-134q-2 -1 -3 -2t-2 -1 q-196 -1 -393 -1.5t-393 -0.5z" />
<glyph unicode="f" horiz-adv-x="879" d="M328 998q8 2 14 2q12 27 -4.5 41t-35.5 32q-42 -4 -12.5 -36t38.5 -39zM379 944q3 5 11 13q-3 3 -4 5h-8h-7v-6.5v-6.5q2 -1 8 -5zM239 932q8 2 13 3q2 24 -22 22q-5 -17 9 -25zM84 922q16 8 29.5 19t30.5 18q42 -3 49 0q0 23 -17 32q-21 -1 -36.5 7t-33.5 -1 q-14 -19 -25.5 -36t3.5 -39zM166 859q30 3 65 30q1 31 -23 29.5t-40 -10.5q-21 -26 -2 -49zM156 773q8 4 11 5q2 8 2 11q-7 2 -16 0q2 -10 3 -16zM217 758q50 5 29 48q-15 7 -29 -6t-15 -27q3 -6 7.5 -9t7.5 -6zM52 745q18 1 32 8q35 0 39 3q0 21 -15 35t-24 33q-7 0 -21 -2 q-18 -13 -25.5 -37.5t14.5 -39.5zM379 678q7 3 13 5q4 9 3.5 28.5t-0.5 31.5q-7 5 -14.5 10.5t-13.5 11.5q-15 25 -38 46.5t18 42.5q31 0 77 -2.5t1 51.5q-39 23 -79 -4q-23 0 -36 -0.5t-28 -16.5q1 -22 3 -68q4 -9 8.5 -19t10.5 -19q3 -30 15.5 -33.5t31.5 -22.5 q5 -31 28 -42zM116 637q7 2 13 9v5.5v5.5q-31 2 -13 -20zM287 612q30 12 15 28t2 37v12.5v12.5q-7 5 -14 10.5t-13 11.5h-24h-24q-12 -6 -19 -18.5t-16 -15.5q-23 12 -29 6v-6.5v-6.5q23 -20 51 -25q2 -6 18 -25q24 0 29.5 -6t23.5 -15zM201 545q-9 -3 11 2v4v5q-20 5 -11 2 q-2 -6 0 -13zM138 517q26 3 23 29t-5 46q-36 -3 -41.5 -30t23.5 -45zM220 494q15 3 16 3q0 12 1 18q-11 0 -18 -7q0 -3 0.5 -7t0.5 -7zM293 409q52 5 23 55q-47 0 -59 -10v-5.5v-5.5q5 -7 36 -34zM233 345q6 2 19 4v8.5v9.5q-17 -1 -21 -5q0 -4 0.5 -8.5t1.5 -8.5zM20 3 l-8 8q0 167 1 333.5t2 334.5q2 12 0 21q-1 140 -0.5 279.5t1.5 280.5l2.5 2.5l3.5 3.5h391h391q0 -1 1.5 -2.5t2.5 -1.5q-1 -71 -1.5 -142t-0.5 -141q-72 0 -143 -0.5t-142 -0.5q-11 -8 -14 -15v-59v-58l8 -8q72 -1 145.5 -2t147.5 -1q0 -2 1 -4t2 -3q-1 -68 -2 -135.5 t-1 -134.5q-1 -3 -2.5 -4.5t-1.5 -3.5q-72 -1 -144.5 -2t-144.5 -2q-5 -4 -8 -8q-2 -132 -3 -265t-1 -265q-2 -2 -4 -3q-120 -1 -239.5 -1.5t-239.5 -0.5z" />
<glyph unicode="g" horiz-adv-x="1192" d="M670 1188q2 0 3.5 1t4.5 2q0 43 -39 51q-1 -12 -1 -36q17 -6 32 -18zM715 1116q4 0 10 2q0 9 -1 13q-3 0 -5.5 -0.5t-4.5 -0.5q0 -10 1 -14zM445 250q1 0 2 0.5l3 1.5q-1 5 -1 13q-2 -1 -5 -4q1 -4 1 -11zM224 3q-59 18 -101 38.5t-75 74.5q-21 46 -32 102v407.5v407.5 q3 10 6 48q17 61 61 119q73 45 153 63q42 1 93 6.5t92 -3.5v-6v-6q-16 -10 -10 -23q3 0 7 0.5t8 0.5q20 26 32 34q45 1 91.5 2t92.5 2q108 -3 222.5 -3t200.5 -78q12 -20 38 -60q7 -29 12 -58t13 -56v-71v-71q-6 -9 -13 -12h-235.5h-234.5q-10 6 -14 9q-3 41 -18 80.5 t-69 20.5q-24 -17 -37 -65v-277v-277q14 -36 21.5 -43.5t43.5 -21.5q41 16 56 65v37v38q-17 22 -37.5 14.5t-35.5 8.5v136.5v137.5q4 4 20 7q407 0 475.5 -0.5t73.5 -1.5q0 -45 1.5 -89t2.5 -88q-11 -49 0 -70v-236v-235l-3.5 -3.5l-2.5 -2.5h-120.5h-120.5q-3 7 -17 44 t-32 38q-41 -39 -67.5 -55.5t-78.5 -26.5q-116 -1 -231.5 -1.5t-230.5 -0.5z" />
<glyph unicode="h" horiz-adv-x="1195" d="M200 1017q8 2 11 2q6 18 17.5 30t16.5 32q-50 -8 -45 -64zM181 520q23 10 27 52q-16 15 -34 6v-8v-7q3 -3 6 -4.5t6 -3.5q0 -10 -3.5 -18.5t-1.5 -16.5zM159 504q4 0 14 2q-3 -9 2 11q-6 1 -11.5 2.5t-10.5 3.5q1 -5 2.5 -10t3.5 -9zM856 279q6 0 14 2q15 21 2.5 39 t-36.5 1q0 -25 20 -42zM679 190q10 2 20 8v9v9q-7 4 -21 4q-10 -14 -10 -21q3 -3 11 -9zM39 3q-3 2 -4.5 3.5t-3.5 4.5v607v608q3 36 7 40h240h240q7 -3 10 -10q0 -54 1.5 -108t1.5 -106q-2 -7 -6 -23q9 -39 0 -98t14 -82q21 0 57 -3t54 8q14 93 -12.5 223.5t24.5 198.5h238 h239q1 -1 3 -2t4 -1l-2 -312t-1 -311l-2 -4t-1 -3q-4 -1 -7 -2.5t-6 -1.5q13 -3 16 -7q0 -154 1.5 -307.5t1.5 -306.5q-1 -1 -2.5 -2l-1.5 -1h-242h-241q-3 2 -7 6v113.5v113.5q9 30 0 67t3 69l-2 28t-1 29q8 16 0 38q-2 46 -4 70q-15 10 -58.5 10.5t-58.5 -8.5 q1 -54 -2.5 -108t-3.5 -106q0 -2 1 -3.5t2 -2.5q0 -42 4.5 -98.5t-7.5 -96.5q0 -16 1.5 -34.5t1.5 -83.5q-1 -1 -2.5 -2l-1.5 -1q-122 -1 -243.5 -1.5t-241.5 -0.5z" />
<glyph unicode="i" horiz-adv-x="582" d="M197 345q13 2 16 6q0 29 -16 27.5t-7 -29.5q4 -2 7 -4zM368 253q4 2 7 2q2 8 2 11h-6h-6q2 -8 3 -13zM38 3q-2 1 -3 2.5t-2 3.5v625t1 626l2.5 2.5l3.5 3.5h236.5h237.5q2 -2 4.5 -4t5.5 -3v-156v-155q4 -17 -3 -35q7 -44 1 -88t6 -83q0 -17 -5 -31t-5 -29q6 -12 10 -32 q0 -61 -2 -121t-2 -120q-12 -39 -0.5 -81t-2.5 -81q0 -60 2.5 -119.5t0.5 -119.5q-2 -2 -4 -3q-121 -1 -241.5 -1.5t-240.5 -0.5z" />
<glyph unicode="j" horiz-adv-x="1173" d="M471 146q3 0 6 0.5t7 0.5q12 19 -6 47q-24 1 -18.5 -17.5t11.5 -30.5zM525 22q9 3 17 5q10 23 -8.5 24t-16.5 -24q1 -1 8 -5zM242 3l-40 12t-39 12q-15 9 -30 18.5t-30 19.5q-33 43 -46.5 80.5t-21.5 91.5v145v145q1 1 7 4h227h227l8 -4q0 -55 -2 -112.5t25 -107.5 q60 -50 97 29q3 35 10 58v434v435q18 9 64 7t73 -7q15 2 58 2.5t289 0.5q7 -3 10 -10v-313.5v-312.5q-6 -18 0 -40v-159.5v-158.5q-2 -5 -3.5 -10t-2.5 -9q-9 -211 -214 -248h-40.5h-39.5q0 18 24 36q0 3 -0.5 7t-0.5 8q-33 0 -36.5 -22t-20.5 -29q-73 -1 -146 -1.5 t-145 -0.5q-2 4 -3 8.5t-2 9.5q-5 -1 -22 -15q-59 -1 -117.5 -2t-116.5 -1z" />
<glyph unicode="k" horiz-adv-x="1221" d="M537 567q2 2 4.5 4t5.5 5q0 13 -1 20q-3 0 -9 2q-9 -11 -7 -28q4 -2 7 -3zM667 123h6h6q2 25 -22 23q0 -6 2 -18q2 -1 8 -5zM1126 0q-117 0 -234.5 1.5t-234.5 3.5q-8 11 -20 42q-20 74 -39.5 141.5t-79.5 296.5h-7h-6q-2 -120 -3 -238.5t-2 -237.5l-4 -4h-239.5h-239.5 q-3 2 -8 7v213v214q12 17 12 27q-3 2 -5 4t-4 5v393.5t1 393.5q2 2 7 4h239.5h239.5l4 -8v-198v-198q0 -2 1.5 -4t2.5 -3h5.5h5.5q32 100 63.5 200t64.5 200q13 10 14 11h240.5h241.5q2 -3 5 -20q-20 -60 -47.5 -143t-136.5 -425v-8v-8q18 -74 31 -115t52 -173 q0 -27 0.5 -39t17.5 -31q9 -27 20 -63.5t66 -228.5q-6 -18 -4 -10q-6 0 -20 -2z" />
<glyph unicode="l" horiz-adv-x="884" d="M380 935q9 4 11 5v7v8h-5h-4q-4 -7 -2 -20zM48 3l-8 8q0 124 -0.5 248t-0.5 248q8 17 0 38v175.5v176.5q10 29 15.5 34.5t-15.5 34.5v143v143q3 3 5 7t5 7h239h239q0 -1 1.5 -2.5t2.5 -1.5q0 -123 1 -245l2 -244q-15 -23 0 -40v-216v-216q42 -62 141.5 -30.5t167.5 11.5 q0 -69 -1 -137.5t-1 -136.5q-1 -1 -2.5 -2l-1.5 -1q-198 -1 -395 -1.5t-394 -0.5z" />
<glyph unicode="m" horiz-adv-x="1597" d="M563 1217q7 2 11 9q-14 15 -11 -9zM427 1170q26 14 26 42q-16 8 -27.5 -14t1.5 -28zM1470 932q18 4 13 15t-23 10q-3 -17 10 -25zM1381 922q11 6 11 17q-26 1 -11 -17zM1397 859q30 3 64 30q2 32 -22 30t-40 -11q-22 -26 -2 -49zM1388 773q10 6 11.5 12.5t-15.5 3.5 q2 -10 4 -16zM1448 758q50 5 29 48q-15 7 -29 -6t-15 -27q3 -6 7.5 -9t7.5 -6zM804 742q4 0 10 2q1 13 -10 17q-2 -6 0 -19zM221 577q37 6 20 43h-9.5h-8.5q-13 -19 -2 -43zM962 567q17 4 20 32q-27 7 -20 -32zM1432 545q37 8 0 13q-2 -6 0 -13zM218 523q21 7 10 39h-6h-6 q-11 -33 2 -39zM1476 475q8 2 13 3v24v24q-18 2 -34.5 -12.5t11.5 -20.5q2 -5 4.5 -9.5t5.5 -8.5zM1337 475q4 2 7 2q7 14 -5.5 14.5t-1.5 -16.5zM224 437q23 9 23 31t-1 45q-27 8 -32 -30.5t10 -45.5zM1464 345q18 3 18 22q-21 -1 -18 -22zM24 3q-2 1 -3 2.5t-2 3.5v480.5 v480.5q1 6 2 12.5t3 12.5q35 13 19.5 31.5t-24.5 38.5v95v96q2 2 3.5 4.5t4.5 5.5q155 0 311 0.5t312 -0.5q4 -7 13 -17q16 -101 42.5 -202t52.5 -200q3 -29 8 -40q3 0 6 -0.5t6 -0.5q23 84 39 170.5t52 168.5q1 28 4.5 62.5t21.5 58.5h309.5h310.5q7 -6 13 -23q0 -41 3 -88 t-9 -85q-16 -20 -5 -35t11 -37q-12 -31 -2 -59.5t-14 -57.5q2 -44 4 -66q3 -22 10.5 -46.5t-5.5 -44.5q-30 0 -50 -0.5t-38 -26.5q4 -31 32 -63q40 -2 63 -38q0 -23 -3 -45t3 -44v-15.5v-14.5q-9 -9 -31.5 -18t-8.5 -23q25 -9 40 -49v-94.5v-93.5q-13 -32 0 -66 q0 -15 2 -68.5t-6 -59.5h-220.5h-218.5q-4 4 -7 6v110v111q6 17 0 43v95.5v95.5q8 24 0 47q0 11 1.5 22t2.5 22q-3 -1 -6.5 -2t-6.5 -1q-36 -123 -70 -247.5t-70 -246.5q-3 -12 -7 -31t-16 -24q-69 0 -138 0.5t-138 0.5q-3 26 -15 47l-70 252t-72 252q-6 -2 -10 -3v-273.5 v-272.5q-2 -1 -4 -3q-109 -1 -216.5 -2t-218.5 0z" />
<glyph unicode="n" horiz-adv-x="1215" d="M1019 992q42 7 18 33q-18 -2 -25 -10q1 -6 1 -20q1 -1 2.5 -2t3.5 -1zM807 615q3 0 5.5 0.5t5.5 1.5q7 17 -8 25q-10 -14 -3 -27zM506 612q2 0 8 2v3v5q-5 0 -7 -1q-3 -5 -1 -9zM893 450q2 0 4.5 0.5t5.5 1.5q2 6 2 11q-3 -1 -5 -1.5t-4 -0.5q-2 -2 -3 -3.5t-2 -2.5 q0 -3 2 -5zM934 349q3 0 7 2v7v8h-4h-4q0 -12 1 -17zM918 285q6 2 7 2q1 14 -4 36q-3 0 -7 0.5t-7 1.5q0 -21 11 -40zM50 3l-8 8q0 313 1 626l2 626q3 1 7 3h151h151q7 -4 20 -26h5h6q-1 19 1 25q36 0 73 0.5t74 0.5q5 -9 13 -20q23 -75 53 -150t60 -147q2 -8 11 -43t28 -27 q0 48 -2 96.5t-2 96.5q9 47 2 94.5t10 98.5q111 0 223 0.5t224 0.5q7 -3 11 -10q0 -118 -1.5 -144.5t-1.5 -39.5q16 -36 2.5 -87t0.5 -91q-1 -222 -1 -443v-443q-2 -2 -4 -3h-228.5h-228.5q-2 0 -4 1t-3 2q-49 120 -95.5 245.5t-84.5 249.5q-9 2 -14 0q-2 -15 -2.5 -37 t5.5 -35v-103.5v-102.5q-2 -5 -3.5 -9.5t-2.5 -8.5q12 -45 9 -98.5t-3 -100.5q-1 -1 -2.5 -2l-1.5 -1q-113 -1 -225.5 -1.5t-224.5 -0.5z" />
<glyph unicode="o" horiz-adv-x="1190" d="M893 661q-6 -2 10 2q6 18 9 26h-5.5h-4.5q-8 -16 -9 -28zM668 366q6 0 13.5 0.5t14.5 0.5q19 27 -8 33t-35 -18q7 -11 15 -16zM972 315l8 2t9 3q3 7 3 22q-3 0 -5.5 1t-4.5 2q-10 -4 -15 -7q0 -18 5 -23zM557 274q63 5 68.5 53.5t11.5 97.5q71 17 54 75q-13 12 -26.5 13 t-27.5 6q-3 3 -3 45t3 290q13 21 13 38q-21 49 -43 73.5t-76 -1.5q-14 -24 -15 -45.5t-9 -45.5q-3 -288 -3.5 -336.5t-1.5 -52.5h-9h-7q-2 -2 -4 -8q2 -6 4 -10q8 0 13 2q11 -11 9 -43t6 -50q0 -39 2.5 -61.5t40.5 -39.5zM328 251q14 3 14 21h-6h-6q-4 -7 -2 -21zM782 128 q8 2 24 19q-4 26 -7 30q-24 0 -24.5 -14t0.5 -32q4 -2 7 -3zM319 -1q-6 2 -10 4q-79 3 -143.5 24.5t-111.5 87.5q-18 38 -35 98v420.5v420.5q5 30 15.5 56t23.5 56q18 19 56 57q78 39 163 45h291.5h292.5q12 -1 25 -2t26 -1q97 -25 140 -67t70 -138q1 -19 1.5 -40t1 -90.5 t1.5 -211t3 -400.5q-6 -18 -3.5 -35t-3.5 -35q0 -79 -46 -154q-22 -22 -34 -39q-6 -2 -17 -8.5t-56 -24.5q-22 -6 -35.5 -10t-28.5 -6q-141 -1 -281 -2t-279 -1q-8 -2 -26 -4z" />
<glyph unicode="p" horiz-adv-x="1193" d="M784 987q12 3 19 31q-18 -4 -19 -31zM270 822q9 4 17 12q1 14 -3 18q-8 0 -21 -6v-9.5v-9.5q4 -2 7 -5zM467 756q28 4 43 15q-1 6 -1 17q-20 12 -42 16.5t-44 9.5q-32 23 -56 -7q7 -38 40 -40t60 -11zM264 673q17 3 17 24q-19 1 -17 -24zM565 619q36 5 62.5 18.5 t30.5 54.5q7 23 12 27q33 0 79 -19q30 -1 92 -3q18 11 33.5 8t34.5 8q0 24 -17 25.5t-35 3.5q-13 14 -25.5 27.5t-24.5 28.5q-17 0 -30 -9t-28 -16q-19 0 -45 -5.5t-39 7.5q0 40 2 94.5t-25 90.5q-18 6 -56 16t-47 -10q-1 -82 -1 -164v-164q3 -7 27 -19zM654 521q10 2 16 3 q-3 19 -12 36q-15 0 -23 -1q-1 -7 -1 -20q6 -6 20 -18zM527 442q3 0 11 2q0 13 -7 24h-6h-5q-2 -14 7 -26zM315 369q-5 -3 17 8q2 18 -3 28q-20 0 -25.5 -12.5t11.5 -23.5zM404 315q19 2 23 5q-1 9 -2 19.5t-1 20.5q-17 10 -31 4q-13 -35 11 -49zM505 283q3 0 5.5 0.5 t5.5 1.5q6 19 -3 38h-6.5h-5.5q-2 -26 -2 -37q1 -1 2.5 -2t3.5 -1zM470 220q23 3 25 28.5t-8 42.5h-9.5h-7.5q-25 -33 0 -71zM52 4q-6 6 -8 9q0 312 1 625l2 626q21 11 72.5 7.5t78.5 -3.5q16 -9 34 0h323h324q13 -1 26.5 -2t27.5 -1q66 -20 110.5 -37.5t83.5 -80.5 q30 -73 29 -161q-14 -2 -29 -1.5t-15 -16.5q16 -11 44 -12v-205v-205q-15 -66 -42 -102.5t-79 -76.5q-41 -9 -59 -15t-46 -10q-96 -1 -191 -2l-190 -2q1 1 -11 -14l-2 -158t-1 -157q-2 -1 -4 -3q-120 0 -240 -1t-239 -1z" />
<glyph unicode="q" horiz-adv-x="1201" d="M504 1044q3 0 11 2q14 36 3 60q-20 0 -20 -25t6 -37zM865 965h5h5q-3 9 -4 11l-4 -2q0 -3 -2 -9zM466 962q26 0 40 8q3 29 3 56q-7 0 -14.5 2t-13.5 2q-1 -2 -17 -40q-3 0 -5.5 -0.5t-4.5 -0.5q-4 3 -5 8q6 22 17.5 47t-12.5 43q-32 -23 -29.5 -67t41.5 -58zM863 886 q6 1 20 5q1 5 5 17q-18 1 -27 -5q0 -5 0.5 -9.5t1.5 -7.5zM1091 787q27 3 27 29l-18 14t-17 15q-11 17 -21 17q-11 -15 8 -36q6 -20 10 -30q8 -4 11 -9zM1008 727q1 0 2 0.5l3 1.5q0 17 -17 20q-1 -2 -3 -8q5 -4 15 -14zM1091 686h7h9q0 17 -3 20h-7h-7q0 -13 1 -20z M939 610q4 0 10 2q45 31 16.5 47.5t-51.5 -14.5q4 -15 25 -35zM1103 600q20 2 25 16q-16 10 -29 1q0 -12 4 -17zM289 597q25 2 48 21q0 12 1 17q-21 33 -42.5 22.5t-47.5 -10.5q-57 42 -100 -1v-9.5v-8.5q27 -20 56.5 -16.5t61.5 3.5q6 -5 11.5 -9.5t11.5 -8.5zM1046 594 q3 0 7 0.5t7 1.5q1 28 -29 27q-4 -13 15 -29zM282 413q28 7 47 39q-2 2 -4 10h-12h-12q-20 -32 -19 -49zM435 391q3 2 6 3.5t6 4.5q26 36 2 69q-17 1 -22 -3q0 -17 -2 -39.5t10 -34.5zM774 366h6h6q2 6 -2 14h-6h-5q0 -10 1 -14zM571 286q33 3 47 10q0 1 0.5 2.5t1.5 3.5 q18 7 20 30t8 40v146.5v148.5q15 38 24 63.5t-20 56.5q-1 9 2.5 26t3.5 32q-15 28 -14.5 61t-23.5 60q-10 5 -30 13q-60 0 -65.5 -72t-6.5 -110q-15 -20 -10.5 -33t14.5 -34v-176.5v-175.5q5 -32 12.5 -53t36.5 -39zM691 112q2 0 3.5 0.5l4.5 1.5v4v5h-5h-4q0 -3 0.5 -5.5 t0.5 -5.5zM834 -280q-7 4 -14.5 5.5t-43.5 5.5q-90 27 -175.5 70.5t-140.5 122.5q-22 16 -34.5 39.5t-32.5 39.5q-40 0 -80 1t-79 2q-130 34 -191 144q-3 14 -6.5 28t-6.5 29v201v202q8 17 33 20t40 15q-1 2 -1.5 3.5t-0.5 4.5q-35 18 -64 29q-15 14 -12 59t12 66 q0 11 -7 21v207t3 57q51 142 195 173q160 7 321.5 5t322.5 -2q78 -4 138.5 -29t100.5 -96q32 -84 25 -159q6 -21 5 -41.5t2 -41.5q-11 -12 -16 -20q2 -9 6 -15.5t10 -20.5v-286v-285q-7 -21 -8 -41.5t-2 -41.5q-16 -48 -25 -72q-11 -15 -21.5 -28.5t-20.5 -27.5 q-48 -38 -121 -57q-81 -3 -96 -3.5t-24 -2.5v-6v-7q74 -22 149 -37q24 -1 45.5 -0.5t21.5 -27.5q-34 -45 -68.5 -91t-70.5 -90q-19 -18 -31 -19t-37 -2z" />
<glyph unicode="r" horiz-adv-x="1212" d="M75 968q1 0 5 2v4v5q-3 0 -4.5 0.5t-3.5 1.5q1 -5 3 -13zM855 816q8 2 13 3q0 21 -2 24q-12 0 -22 -7v-5.5v-5.5q3 -3 11 -9zM538 794q18 9 28.5 8.5t31.5 -0.5q48 12 60 28t21 66q-6 18 -13 54q-16 23 -56.5 31t-57.5 -16v-65v-65q-16 -31 -14 -41zM497 775q10 2 14 2 v6.5v7.5q-17 19 -8 45q6 0 12.5 0.5t13.5 1.5q-4 28 -32 59q-28 0 -25.5 -36t11.5 -52q0 -7 -1.5 -13t-1.5 -16q27 -9 17 -5zM316 594q12 8 17 11v6v6q-38 2 -17 -23zM922 559q2 0 4 1t5 2q0 6 -2 14h-6h-6q0 -4 -2 -14q3 -1 7 -3zM500 496h5h5v24.5v25.5q-5 0 -9 -0.5 t-7 -0.5q-18 -15 -10 -26t16 -23zM516 321q7 4 8 5q-8 39 -9.5 46.5t-3.5 10.5q-20 0 -17.5 -21t8.5 -32q3 -3 6.5 -5t7.5 -4zM196 229q18 3 21.5 35.5t6.5 50.5h-3.5h-2.5q-11 -16 -24 -42t2 -44zM364 197h2.5h3.5q6 18 18 32q-4 18 -10 26q-3 14 -7 39.5t-23 25.5 q-30 -23 -10.5 -39t14.5 -45q-3 -4 -15.5 -8t-15.5 -7q0 -14 15.5 -15.5t27.5 -8.5zM706 103q16 7 36 24q0 7 1 11q-10 7 -28 7q-17 -23 -15 -40q2 0 6 -2zM66 4q-16 8 -12 156.5t4 177.5q4 10 11.5 19t7.5 21q-42 50 -27.5 121.5t14.5 132.5q-4 8 -6 13v213v215 q10 44 -2 97t9 94q10 5 7 4h400.5h401.5q118 -5 219 -56q4 -9 15 -20.5t21 -23.5q37 -75 37 -144.5t1 -147.5q-5 -12 -7.5 -22t-14.5 -55q-46 -87 -146 -117q-3 -15 -3 -14q35 -18 66 -35.5t61 -43.5q6 -12 12.5 -24.5t12.5 -24.5q9 -54 11.5 -65.5t7.5 -25.5 q-1 -111 -2 -220.5t-1 -219.5q-2 -1 -4 -3h-240.5h-239.5q-3 2 -4.5 3.5t-2.5 3.5q0 33 1 66l2 66q7 6 17 4t19 2q12 20 28.5 13t34.5 -10q7 18 28 37.5t17 42.5q-45 0 -78.5 2t-51.5 -54q-9 -2 -15 0q-13 72 7 175t-49 153q-24 6 -43 11.5t-37 -12.5q0 -18 -0.5 -35 t-0.5 -33q-9 -9 -12 -18l6 -10t6 -9v-199.5v-198.5q-122 0 -243.5 -1t-242.5 -1z" />
<glyph unicode="s" horiz-adv-x="1209" d="M208 1076q16 1 34 15.5t18 33.5q-33 23 -56 12q-19 -34 4 -61zM1111 1047q3 0 5.5 0.5t5.5 1.5v6v6h-6h-6q-3 -3 -4 -5q4 -6 5 -9zM84 958q14 4 13 26q-7 2 -16 0q-2 -19 3 -26zM487 632q35 6 27.5 32.5t-7.5 50.5q-2 2 -4 4.5t-3 5.5h-7.5h-6.5q-10 -14 -10 -33 q3 -4 7 -8t9 -8q0 -19 -5 -44zM1013 591q4 0 14 2q0 11 -3 15q-8 0 -12 -3q0 -4 0.5 -7.5t0.5 -6.5zM820 543q4 0 9 0.5t10 1.5q11 17 -2 47q-30 6 -35.5 -15.5t18.5 -33.5zM706 112q3 0 6.5 0.5t6.5 1.5v6v6q-11 1 -15 -3q0 -3 0.5 -5.5t1.5 -5.5zM256 4q-24 6 -70 18 q-87 49 -126 128q-10 29 -8 60.5t-8 59.5q0 48 0.5 97t0.5 98q1 1 7 4q67 0 134.5 1t135.5 2q45 -23 114.5 4t102.5 -12v-48v-48q-12 -35 6 -42q51 -54 97 -16q15 25 17 28v58.5t-12 57.5q-6 2 -31 24q-100 47 -205 83.5t-207 81.5q-69 40 -99.5 77t-53.5 111q-3 32 -7 41 q0 81 1 161.5t47 151.5q51 47 112 70q32 3 60 10q48 2 96 2.5t288 0.5q24 5 39 0q135 0 167.5 -0.5t92.5 -2.5q19 -7 47 -10q95 -38 135 -109q9 -27 12 -37.5t13 -48.5v-94v-94q-4 -3 -8 -4h-236.5h-235.5q-6 2 -8 4q-7 20 -8.5 41t-10.5 42q0 12 1.5 18.5t1.5 13.5 q-13 11 -32 -4q-56 -7 -82 -44q8 -39 18 -52t43 -34q90 -36 179.5 -70.5t179.5 -69.5q55 -29 64.5 -34t12.5 -8q0 -22 3 -29q9 1 18 8q48 0 70 -70t30 -103q3 -49 11 -120.5t-8 -117.5q-2 -23 -6 -67q-23 -81 -82.5 -117t-134.5 -49h-233.5h-232.5q-18 9 -31 0 q-45 0 -90.5 -1t-90.5 -1z" />
<glyph unicode="t" horiz-adv-x="1062" d="M876 1149q10 1 14 5q0 8 -4 15h-8h-7q0 -15 5 -20zM800 1107q6 2 10 2v4v5q-6 2 -10 2q-2 -6 0 -13zM939 1000q3 0 11 2v6v6h-6h-6q0 -4 0.5 -7.5t0.5 -6.5zM689 974q9 2 13 5q-4 3 -13 5v-5v-5zM435 229q7 1 19 3q7 12 -2 27q-21 0 -24 -3q0 -20 7 -27zM315 4 q-17 8 -11 53t10 63q-15 37 -7 78t0 82v294.5v295.5q2 24 3 50.5t-7 50.5q-10 7 -11 8q-57 0 -114.5 1.5t-114.5 2.5v97v99q4 3 23 3q64 37 -1 76q-8 -3 -19 -3v6v6h487h489q2 -2 3 -4v-138.5v-138.5q-17 -12 -38 -3.5t-39 -0.5q-37 0 -73.5 -1.5t-72.5 -1.5q-10 -3 -20 -14 q-1 -239 -1 -478v-478q-1 -1 -2.5 -2l-1.5 -1q-121 0 -241.5 -1t-240.5 -1z" />
<glyph unicode="u" d="M316 1139q16 4 24 5q20 20 14.5 46.5t-38.5 26.5q-30 -15 -25.5 -39t25.5 -39zM437 1126q6 4 12.5 8.5t13.5 9.5q1 16 3.5 38t-9.5 35h-11h-10q-13 -15 -15 -47.5t16 -43.5zM95 1088q8 2 13 2q9 15 4.5 31t-25.5 16q-15 -26 8 -49zM244 1028q15 12 12 29q12 3 -13 -2 q-8 -12 -6 -24q4 -2 7 -3zM1071 160q16 3 19 22q-3 0 -9 2q4 3 -11 -7q0 -12 1 -17zM1084 121q6 2 10 2q0 12 -3 16h-6h-6q0 -8 5 -18zM469 55q-12 -3 13 2q7 10 7 34q-14 0 -23 -4q-4 -24 3 -32zM424 17q20 8 14 5q2 6 2 7q-7 3 -17 -1q1 -4 1 -11zM247 4q-39 10 -73 23.5 t-65 39.5q-59 80 -67 156q-1 256 -2 513t-1 515q5 8 27 17h228h229q1 -1 3 -2.5t4 -1.5q0 -222 1 -443t3 -442q12 -37 11 -55t38 -36q57 0 74 62q0 225 1 450t2 451q1 3 7 16q119 0 238 0.5t239 0.5q7 -4 11 -11v-522v-522q-6 -12 -8 -21.5t-11 -52.5q-18 -34 -26 -50 q-52 -46 -102 -70q-17 -6 -42 -8.5t-31 -4.5h-253.5h-252.5q-1 1 -2 2.5t-1 3.5q-8 -4 -11 -6q-42 0 -84 -1t-84 -1z" />
<glyph unicode="v" horiz-adv-x="1281" d="M912 1009q-2 -1 7 2q0 14 -13 41q13 28 13 31q-13 10 -23 14q-33 -21 -16.5 -43t32.5 -45zM940 968h7h9q-4 27 -27 27q0 -15 11 -27zM201 807q24 4 24 48q-4 0 -7.5 0.5t-6.5 0.5q-14 -18 -10 -49zM778 429q42 10 45 48.5t-45 38.5q-31 -16 -36 -52q2 -6 6.5 -10.5 t29.5 -24.5zM794 366q7 0 14 0.5t15 0.5q16 24 -2.5 30.5t-37.5 -5.5q0 -5 0.5 -10t1.5 -10q6 -2 9 -6zM997 359h4.5h5.5q0 5 0.5 9.5t0.5 10.5q-7 6 -13 36q-3 0 -5.5 0.5t-5.5 0.5q1 -17 5.5 -28.5t7.5 -28.5zM683 274q43 3 43 54q-28 36 -73 14q-18 -27 -4 -41.5 t34 -26.5zM566 197q6 2 8 2v8v8q-6 0 -14 2v-9v-7q4 -2 6 -4zM297 4q-6 4 -8 5q-31 145 -59.5 291t-58.5 291q-35 120 -44 221q-26 76 -35.5 158.5t-34.5 158.5q-6 27 -8 60t-14 57v8.5v9.5q24 12 56 3.5t59 0.5q97 0 194 -0.5t195 -0.5q20 -32 15 -70.5t10 -72.5 q7 -117 22 -232t23 -231q11 -36 7.5 -74.5t11.5 -71.5q6 -2 10 -3q7 82 17.5 162.5t16.5 163.5q8 21 6.5 41.5t6.5 41.5q0 56 9.5 112t8.5 113q8 23 7 67t20 55q125 0 249.5 -0.5t250.5 -0.5q6 -15 -1.5 -39t-11.5 -39q-28 -152 -62 -302.5t-58 -302.5q-21 -63 -32 -155 q-9 -15 -9.5 -29.5t-3.5 -31.5q-12 -39 -18 -79.5t-20 -78.5q-3 -39 -11.5 -77.5t-16.5 -75.5q-9 -12 -9 -25.5t-8 -25.5q-168 0 -336 -1t-336 -1z" />
<glyph unicode="w" horiz-adv-x="1813" d="M965 987q23 3 23 30q-5 1 -7 4q-19 -12 -16 -34zM1428 984q4 0 14 2q0 14 -4 18h-6h-6q-6 -12 2 -20zM553 756q29 4 42 15v8.5v8.5q-21 12 -43 16.5t-44 9.5q-31 23 -55 -7q7 -38 40 -40t60 -11zM908 695q12 2 19 2q18 10 33.5 8t34.5 10q0 20 -19.5 22.5t-33.5 4.5 q-24 31 -50 57q-16 0 -30 -10t-27 -16q-61 0 -93 -16q0 -33 48 -38q30 -12 45 -19q21 -1 73 -5zM1342 651q12 1 20 8q0 4 -0.5 8t-0.5 8q-16 16 -45.5 16.5t-49.5 -5.5q-1 -3 -1.5 -6.5t-0.5 -6.5q12 -13 36.5 -13.5t41.5 -8.5zM1421 645q13 2 17 5q0 12 1 17q-16 11 -35 4 v-7v-7q5 -4 17 -12zM1504 623q49 3 77 20v4.5v4.5q-30 12 -61.5 24.5t-55.5 -21.5q0 -21 13 -22t27 -10zM489 315q20 2 24 5q-2 9 -2.5 19.5t-0.5 20.5q-30 19 -35.5 -7t14.5 -38zM1377 280q10 2 14 5v6v6h-8h-7q0 -11 1 -17zM1111 213h6h6q2 7 -2 46h-6h-6q0 -12 0.5 -23 t1.5 -23zM305 4q-12 8 -16.5 36t-7.5 40q-9 63 -23 125t-21 126q-39 155 -63 304q-14 33 -16 71t-16 72q-7 60 -22.5 118.5t-21.5 118.5q-3 6 -7 16q-6 56 -24.5 116.5t-16.5 116.5l4 4h244.5h244.5q2 -1 3.5 -2.5t4.5 -1.5q7 -38 13 -72t9 -72q21 -54 20 -115.5t18 -115.5 q5 -55 15 -91q4 1 10 3q19 88 36.5 178t39.5 180q3 15 9 57t24 52q84 0 169 -0.5t169 -0.5q6 -6 8 -9q34 -114 53 -230.5t53 -229.5h3h5q9 36 13.5 73.5t11.5 75.5q2 3 4 7t5 8q0 77 14 151.5t21 150.5q1 0 3 1.5t4 2.5q369 0 431 -0.5t68 -1.5q0 -3 0.5 -6.5t0.5 -6.5 q-31 -114 -52 -233.5t-40 -235.5q-12 -30 -13.5 -63t-19.5 -59q-31 -14 -30 -33q24 -21 25 -22q0 -27 -7 -57.5t-12 -57.5q-12 -30 -16 -63t-9 -63q-17 -42 -19.5 -88.5t-18.5 -86.5q-13 -94 -35 -182q-2 -1 -3 -2t-2 -1q-129 0 -258.5 0.5t-258.5 0.5q-9 69 -26.5 136.5 t-25.5 136.5q-17 41 -21.5 87.5t-19.5 89.5q-6 -2 -10 -3q-9 -52 -18.5 -110.5t-25.5 -108.5q-8 -42 -15.5 -89.5t-35.5 -80.5q0 -18 5 -30t-12 -29q-126 0 -251 -1t-251 -1z" />
<glyph unicode="x" horiz-adv-x="1275" d="M860 1003q1 0 3 0.5t4 1.5v6v6h-5h-3q0 -4 0.5 -7.5t0.5 -6.5zM378 965h4.5h5.5q-2 3 -4 11q-2 0 -4 -2q-1 -3 -1.5 -5t-0.5 -4zM375 886q5 0 20 5q3 9 5 17q-17 1 -26 -5q0 -5 0.5 -9.5t0.5 -7.5zM800 870q5 0 13 2q5 10 1.5 28.5t-18.5 18.5q-18 -24 4 -49zM603 787 q27 3 27 29q-26 21 -34 29q-10 17 -22 17q-11 -15 8 -36q4 -10 10 -30q8 -4 11 -9zM714 759q44 6 51.5 35.5t-49.5 29.5q-1 -1 -13 -10q0 -39 11 -55zM521 727l4 2q0 17 -17 20q-2 -4 -2 -8q5 -4 15 -14zM765 721q5 0 13 2v7v8q-10 1 -15 -3q0 -4 0.5 -7.5t1.5 -6.5z M603 686h7.5h8.5q1 15 -2 20h-8h-7q0 -5 0.5 -10t0.5 -10zM451 610q3 0 11 2q45 30 16.5 47.5t-51.5 -14.5q4 -16 24 -35zM616 600q18 2 24 16q-15 11 -29 1q0 -12 5 -17zM559 594q3 0 6.5 0.5t7.5 1.5q0 28 -30 27q-4 -12 16 -29zM743 483q29 11 29 46q-20 9 -25.5 -12 t-3.5 -34zM657 464q2 0 4 1t5 2q0 5 -2 17q-10 1 -15 -3q0 -3 0.5 -7t1.5 -7q1 -1 2.5 -2t3.5 -1zM780 391q51 13 24 49h-12h-12q-27 -30 0 -49zM286 366h6.5h6.5q2 6 -2 14h-6h-6q0 -4 0.5 -7.5t0.5 -6.5zM495 251q14 5 14 21h-6h-6q-2 -4 -2 -21zM949 128q36 17 17 49 q-27 0 -24 -46q3 -1 7 -3zM26 -1q-5 5 -5 21q48 159 96.5 317.5t97.5 317.5q0 35 -16 69t-16 67q9 17 -6 28q-6 18 -10.5 30.5t-8.5 29.5q-6 9 -20 58.5t-18 58.5q-18 60 -37.5 121.5t-32.5 123.5q-8 9 -6 23l4 4h233h234q11 -9 23 -14q18 -89 37 -177t38 -175h5.5h5.5 q4 9 10 44t21 92q0 9 7 39t12 66q21 74 29 121q15 7 39.5 5t42.5 -2q11 -25 -6 -65q0 -14 1.5 -22.5t1.5 -15.5q-25 -58 39 -58q37 29 37 55q-18 25 -22 47t-6 53l2.5 2.5l3.5 3.5h177h178q3 -7 3 -17q-43 -139 -86 -278.5t-85 -277.5q-6 -8 -6 -30q50 -157 98.5 -315.5 t97.5 -315.5q0 -6 1 -12l2 -12q-1 -1 -2.5 -2l-1.5 -1h-245h-244q-18 9 -28.5 82.5t-13.5 96.5q-6 14 -24 102.5t-24 112.5q-4 32 -5 47q-7 3 -14 1q-3 -6 -5 -16.5t-11 -43.5q-13 -104 -38 -183v-5.5v-5.5q-18 -42 -24 -91t-17 -94q-3 -1 -4.5 -2t-3.5 -1 q-117 -1 -233.5 -2t-232.5 -1q-7 -3 -19 -4z" />
<glyph unicode="y" horiz-adv-x="1309" d="M1031 1076q52 4 52 49q-37 30 -58.5 8t6.5 -57zM869 987q6 2 10 2q4 7 9 29q-18 -4 -19 -31zM356 822q8 4 17 12q0 14 -4 18q-8 0 -21 -6v-9.5v-9.5q2 -1 8 -5zM286 816q8 2 13 3q0 21 -2 24q-12 0 -22 -7v-5.5v-5.5q3 -3 11 -9zM349 673q17 3 17 24q-19 1 -17 -24z M660 629q10 2 16 3q-1 14 1.5 27t1.5 27q-7 2 -16 0q-3 -12 -7.5 -29.5t4.5 -27.5zM739 521q3 0 7.5 1t8.5 2q-3 20 -12 36q-15 0 -23 -1q0 -6 -0.5 -10.5t-0.5 -9.5q6 -6 20 -18zM612 442q3 0 11 2q0 13 -7 24h-6h-5q-2 -14 7 -26zM400 369q4 2 8 3.5t9 4.5q2 18 -3 28 q-20 0 -25.5 -12.5t11.5 -23.5zM590 283q3 0 5.5 0.5t5.5 1.5q6 19 -3 38h-6h-6q-2 -26 -2 -37q1 -1 2.5 -2t3.5 -1zM555 220q21 3 23.5 29t-6.5 42h-9h-8q-25 -32 0 -71zM365 4q-13 23 -2 67q-9 24 -2.5 47t-3.5 47q0 24 1 48l2 48q-2 55 -1 109t1 110q-6 12 -13 34 q-48 90 -89 183.5t-88 184.5q-8 25 -20 47.5t-24 46.5q-10 27 -26 62t-101 219q1 3 1 9q4 1 40 1.5t249 0.5q14 -8 28 0q39 0 79.5 -0.5t80.5 -0.5q4 -4 7 -6q54 -141 119 -304q9 -3 15 -1q29 73 59 146.5t60 148.5q8 11 17 17q115 0 230.5 -0.5t231.5 -0.5 q12 -14 -26 -85.5t-47 -96.5q-74 -150 -146 -300.5t-139 -301.5q-3 -112 -3 -222.5v-221.5q-1 -3 -1 -33q-123 0 -245 -1t-244 -1z" />
<glyph unicode="z" horiz-adv-x="971" d="M700 1044q5 0 17 2q9 15 1 31q-36 1 -18 -33zM549 1044q2 0 10 2q14 36 3 60q-20 0 -20 -25t7 -37zM517 958q31 10 33.5 20.5t2.5 47.5q-7 0 -14.5 2t-13.5 2q-11 -24 -16 -40q-3 0 -6 -0.5t-5 -0.5q1 -1 -5 8q6 22 17.5 47t-12.5 43q-30 -21 -29.5 -56.5t21.5 -60.5 q20 -7 27 -12zM428 641q1 1 3 2.5t4 3.5v2.5v2.5q-3 1 -10 1q-2 -2 3 -12zM209 543q5 0 9.5 0.5t9.5 1.5q13 17 -2 47q-30 6 -35.5 -15.5t18.5 -33.5zM574 521q16 1 23 8v14v14q-18 18 -28 -1.5t5 -34.5zM327 413q28 7 46 39q-1 2 -2.5 4.5t-1.5 5.5h-12h-12 q-20 -31 -18 -49zM482 394q5 3 11 5q6 9 6 35t-6 34q-17 1 -22 -3q0 -16 -2.5 -38.5t13.5 -32.5zM735 112q2 0 3.5 0.5l4.5 1.5v4v5h-5h-4q0 -3 0.5 -5.5t0.5 -5.5zM95 112q3 0 6.5 0.5t7.5 1.5v6v6q-11 1 -15 -3q0 -3 0.5 -5.5t0.5 -5.5zM10 4q-6 6 -8 9q0 41 4 90t-5 88 v34.5v35.5q67 168 153 330q20 58 49.5 113t52.5 113q18 35 36 75t33 66q0 13 -2 19q-66 18 -157.5 -6.5t-138.5 18.5v133.5v135.5q21 19 49 10q186 0 372.5 0.5t372.5 0.5v-6.5v-6.5q-27 -11 -31 -51q-20 -7 -31.5 -4.5t-11.5 -29.5q15 -17 27.5 -5t27.5 20q59 -21 59 42 q-19 20 -35 30q-5 20 -2 11q14 0 34.5 0.5t33.5 -5.5v-129.5v-128.5q-12 -52 -40 -98.5t-42 -96.5q-42 -72 -74.5 -149t-71.5 -150q-10 -35 -29 -66t-28 -66q-12 -21 -25.5 -43t-10.5 -46q1 -1 2.5 -2t3.5 -1l152 -2t152 -1q8 -4 11 -11v-132.5v-132.5q-1 -1 -2.5 -2 l-1.5 -1q-220 0 -439.5 -1t-438.5 -1z" />
<glyph unicode="&#x2000;" horiz-adv-x="705" />
<glyph unicode="&#x2001;" horiz-adv-x="1411" />
<glyph unicode="&#x2002;" horiz-adv-x="705" />
<glyph unicode="&#x2003;" horiz-adv-x="1411" />
<glyph unicode="&#x2004;" horiz-adv-x="470" />
<glyph unicode="&#x2005;" horiz-adv-x="352" />
<glyph unicode="&#x2006;" horiz-adv-x="235" />
<glyph unicode="&#x2007;" horiz-adv-x="235" />
<glyph unicode="&#x2008;" horiz-adv-x="176" />
<glyph unicode="&#x2009;" horiz-adv-x="282" />
<glyph unicode="&#x200a;" horiz-adv-x="78" />
<glyph unicode="&#x202f;" horiz-adv-x="282" />
<glyph unicode="&#x205f;" horiz-adv-x="352" />
<glyph unicode="&#xe000;" horiz-adv-x="1270" d="M0 1270h1270v-1270h-1270v1270z" />
</font>
</defs>
</svg>
